<svg width="76" height="69" viewBox="0 0 76 69" fill="none" xmlns="http://www.w3.org/2000/svg">
<mask id="mask0_69_689" style="mask-type:luminance" maskUnits="userSpaceOnUse" x="0" y="0" width="76" height="69">
<path d="M75.6712 0.777344H0.703125V68.3187H75.6712V0.777344Z" fill="white"/>
</mask>
<g mask="url(#mask0_69_689)">
<path d="M70.05 52.6131C70.7736 54.9609 71.471 57.2256 72.17 59.4895C72.7665 61.4232 73.3731 63.3537 73.9559 65.292C74.0659 65.6577 74.166 65.8825 74.6279 65.9333C74.7789 65.9486 74.9254 65.9937 75.059 66.0657C75.1926 66.1378 75.3107 66.2355 75.4065 66.3533C75.5023 66.471 75.574 66.6065 75.6174 66.752C75.6607 66.8975 75.675 67.0501 75.6594 67.2011C75.6272 67.5035 75.4844 67.7833 75.2582 67.9867C75.0321 68.1901 74.7388 68.3026 74.4346 68.3026C74.2591 68.3142 74.0821 68.3026 73.9058 68.3026H2.7219C2.3951 68.3237 2.06713 68.3183 1.74121 68.2864C1.46171 68.2582 1.20246 68.1279 1.01312 67.9203C0.823777 67.7128 0.717663 67.4427 0.715104 67.1618C0.689849 67.0233 0.693413 66.8811 0.725571 66.744C0.75773 66.6069 0.817793 66.478 0.902014 66.3651C0.986235 66.2523 1.0928 66.1581 1.21507 66.0883C1.33734 66.0185 1.47269 65.9746 1.61266 65.9594C2.24387 65.9156 2.30545 65.5707 2.44555 65.1288C3.70285 61.0449 4.96681 56.9628 6.23745 52.8825C6.24758 52.8059 6.24758 52.7283 6.23745 52.6516C5.40678 52.6613 4.57679 52.6002 3.75647 52.4692C2.8952 52.214 2.13668 51.6931 1.58944 50.9807C1.0422 50.2684 0.734275 49.4012 0.709716 48.5033C0.699965 43.9026 0.699965 39.302 0.709716 34.7013C0.709716 33.8438 1.09999 33.3519 1.85976 33.3157C5.65011 33.1433 9.34425 33.5143 12.7459 35.3772C15.2758 36.6933 17.4582 38.5897 19.1145 40.9113C20.7707 43.2329 21.8537 45.9137 22.2749 48.7342C22.3956 49.5542 22.4561 50.3818 22.4558 51.2106C22.4869 51.3989 22.4732 51.592 22.4159 51.7741C22.3586 51.9562 22.2592 52.1222 22.1258 52.2588C21.9924 52.3953 21.8287 52.4986 21.648 52.5601C21.4673 52.6217 21.2746 52.6398 21.0856 52.6131C19.7038 52.6254 18.3229 52.6131 16.8603 52.6131C17.4861 54.6699 18.085 56.6506 18.6931 58.6289C19.369 60.8266 20.071 63.0166 20.7199 65.2212C20.7349 65.3293 20.7716 65.4333 20.8278 65.5269C20.8841 65.6204 20.9587 65.7016 21.0472 65.7655C21.1357 65.8294 21.2362 65.8746 21.3427 65.8986C21.4492 65.9225 21.5594 65.9246 21.6668 65.9048C24.1347 65.8745 26.6031 65.8745 29.072 65.9048C29.627 65.9117 29.7694 65.7277 29.7278 65.2181C29.6893 64.7432 29.7201 64.2636 29.7217 63.7856C29.7255 62.6979 30.1381 62.2753 31.2096 62.2707C32.1164 62.2707 33.0247 62.2437 33.93 62.2815C34.4257 62.3022 34.5689 62.1521 34.5674 61.651C34.5499 57.2264 34.5522 52.802 34.5743 48.3778C34.5743 47.8221 34.3295 47.7805 33.8938 47.782C31.0226 47.7928 28.1506 47.789 25.2793 47.7859C24.0923 47.7859 23.6836 47.3825 23.6797 46.2225C23.6766 45.2172 23.6766 44.2116 23.6797 43.2057C23.6836 42.1766 24.1062 41.757 25.1508 41.7555C28.8033 41.7555 32.4559 41.7378 36.1077 41.7701C36.7766 41.7763 36.9952 41.6393 36.9929 40.9234C36.9657 32.577 36.9657 24.2306 36.9929 15.8842C36.9929 15.1737 36.655 15.2053 36.1693 15.206C26.4968 15.2117 16.8234 15.2143 7.14886 15.2137C6.91285 15.2519 6.67121 15.2347 6.44294 15.1637C6.21467 15.0926 6.00599 14.9696 5.83332 14.8042C5.69241 14.6494 5.59429 14.4606 5.54865 14.2563C5.50301 14.052 5.51142 13.8394 5.57304 13.6393C5.63467 13.4393 5.7474 13.2588 5.90009 13.1156C6.05278 12.9724 6.24016 12.8715 6.44375 12.8228C9.39095 11.6831 12.3417 10.5505 15.2961 9.42506C22.6736 6.59743 30.0491 3.76441 37.4225 0.926004C37.6761 0.82398 37.9477 0.773736 38.221 0.778231C38.4944 0.782726 38.7642 0.841868 39.0144 0.952177C45.1838 3.3318 51.3566 5.70398 57.5328 8.06872C61.5792 9.62263 65.6249 11.1799 69.6698 12.7405C70.5866 13.0938 70.953 13.5918 70.8129 14.2531C70.6728 14.9143 70.167 15.2099 69.1571 15.2099C59.5852 15.2099 50.0144 15.2117 40.4446 15.2153C39.1814 15.2153 39.3992 15.1067 39.3985 16.2445C39.3915 24.4903 39.3985 32.7361 39.38 40.9819C39.38 41.5977 39.5201 41.7824 40.1575 41.777C43.7846 41.7463 47.4118 41.7624 51.039 41.764C52.306 41.764 52.6932 42.155 52.694 43.4267C52.694 44.4073 52.7001 45.388 52.694 46.368C52.6878 47.3479 52.2437 47.7859 51.2553 47.7882C48.3586 47.7959 45.462 47.8051 42.5653 47.782C41.9972 47.7774 41.7955 47.9013 41.7955 48.5241C41.8258 52.8728 41.8271 57.222 41.7994 61.5717C41.7994 62.1167 41.9079 62.3253 42.4976 62.2915C43.4267 62.2376 44.3612 62.2661 45.2926 62.2807C45.4753 62.2601 45.6602 62.281 45.8337 62.3417C46.0072 62.4023 46.1647 62.5013 46.2947 62.6312C46.4247 62.7612 46.5238 62.9187 46.5846 63.0922C46.6454 63.2656 46.6663 63.4505 46.6459 63.6332C46.6551 64.2113 46.662 64.7878 46.6459 65.3675C46.6336 65.7285 46.7051 65.9063 47.1347 65.9063C49.7519 65.8878 52.3737 65.8917 54.9933 65.9063C55.0599 65.9154 55.1276 65.9112 55.1926 65.8939C55.2576 65.8766 55.3185 65.8467 55.3718 65.8057C55.4252 65.7648 55.4698 65.7137 55.5033 65.6554C55.5368 65.5971 55.5583 65.5327 55.5668 65.466C56.8107 61.3996 58.068 57.337 59.3386 53.2782C59.498 52.7686 59.4557 52.5854 58.8568 52.6093C57.7021 52.6547 56.5398 52.6293 55.3812 52.6216C54.3582 52.6154 53.9187 52.1682 53.9187 51.1521C53.8863 43.2458 59.508 36.0753 67.3966 33.9154C69.7243 33.3784 72.1175 33.1819 74.5016 33.3319C74.6606 33.3287 74.8185 33.3587 74.9653 33.4199C75.1121 33.481 75.2446 33.572 75.3543 33.6871C75.4641 33.8022 75.5487 33.9389 75.6028 34.0884C75.6569 34.238 75.6793 34.3971 75.6686 34.5558C75.6778 39.2822 75.7032 44.0086 75.654 48.7342C75.5797 49.7606 75.1299 50.7237 74.3905 51.4395C73.6512 52.1553 72.674 52.5736 71.6458 52.6147C71.1469 52.6324 70.6451 52.6147 70.0608 52.6147M62.6818 12.7859L62.7049 12.6481C62.1368 12.4318 61.5671 12.217 60.9998 11.9992C53.5869 9.15359 46.1748 6.30492 38.7634 3.45317C38.5682 3.37633 38.3596 3.33947 38.1498 3.34475C37.9401 3.35004 37.7336 3.39738 37.5425 3.48396C30.2174 6.30286 22.8902 9.11792 15.5609 11.9291C14.8689 12.1189 14.2077 12.4075 13.598 12.7859H62.6818ZM12.2217 50.2084C14.5895 50.2084 16.9565 50.2014 19.3243 50.2145C19.7662 50.2145 19.9933 50.2076 19.9248 49.6179C19.8293 48.7217 19.6521 47.8361 19.3952 46.9722C18.3985 43.634 16.3252 40.7194 13.4986 38.683C10.6719 36.6465 7.25083 35.6027 3.76879 35.7143C3.22995 35.7243 3.10294 35.8914 3.10525 36.4071C3.12449 40.3029 3.11371 44.1995 3.11602 48.0961C3.11602 49.5017 3.83319 50.2055 5.26754 50.2076C7.58455 50.2122 9.90156 50.2122 12.2186 50.2076M64.1697 50.2076C66.5098 50.2076 68.85 50.2076 71.1901 50.2076C71.4602 50.2393 71.734 50.2108 71.9918 50.1242C72.2496 50.0375 72.485 49.8948 72.6811 49.7063C72.8771 49.5178 73.029 49.2882 73.1258 49.034C73.2225 48.7798 73.2618 48.5074 73.2407 48.2362C73.2515 44.2688 73.2407 40.3006 73.26 36.3332C73.26 35.8105 73.0745 35.722 72.6072 35.7174C70.95 35.7034 69.2985 35.912 67.6968 36.3378C61.805 37.882 56.9531 43.6022 56.4258 49.5933C56.3773 50.1398 56.5167 50.2199 56.9993 50.216C59.3895 50.1968 61.7796 50.2076 64.1697 50.2091M64.7725 65.8971V65.9002C66.8362 65.9002 68.9008 65.8878 70.9645 65.9094C71.4741 65.9148 71.6042 65.824 71.4356 65.289C70.1737 61.2831 68.9341 57.2697 67.7169 53.249C67.7035 53.1468 67.6692 53.0485 67.6162 52.9602C67.5632 52.8718 67.4926 52.7954 67.4088 52.7355C67.325 52.6756 67.2297 52.6337 67.1289 52.6122C67.0282 52.5908 66.9241 52.5903 66.8231 52.6108C65.4647 52.6411 64.1048 52.6411 62.7434 52.6108C62.6423 52.5904 62.5381 52.591 62.4372 52.6124C62.3364 52.6339 62.241 52.6759 62.157 52.7357C62.073 52.7955 62.0022 52.8719 61.9489 52.9602C61.8957 53.0485 61.8611 53.1468 61.8473 53.249C60.6367 57.2697 59.3995 61.2815 58.1355 65.2843C57.9815 65.7785 58.0331 65.9163 58.5835 65.9086C60.6473 65.8794 62.711 65.8971 64.7756 65.8971M4.78412 65.8532C4.90024 65.8742 5.01742 65.8888 5.13514 65.8971C9.36273 65.8971 13.5903 65.8902 17.8179 65.9125C18.3768 65.9125 18.3567 65.7254 18.2297 65.3059C16.9719 61.2723 15.7257 57.2351 14.4909 53.1943C14.4801 53.1038 14.4509 53.0165 14.4052 52.9377C14.3595 52.8588 14.2983 52.7901 14.2252 52.7357C14.1521 52.6812 14.0687 52.6422 13.9801 52.621C13.8914 52.5998 13.7994 52.5969 13.7096 52.6124C12.3009 52.6385 10.8907 52.6408 9.48204 52.6124C8.99169 52.6016 8.79694 52.7625 8.65607 53.2374C7.94634 55.6329 7.18658 58.01 6.44991 60.4009C5.89259 62.2091 5.34374 64.0188 4.78335 65.8555M36.9729 54.9501C36.9729 56.8315 36.9729 58.7128 36.9729 60.5941C36.9729 62.2815 36.9729 62.2476 38.6341 62.2969C39.2899 62.3161 39.4085 62.0906 39.4039 61.4948C39.3815 57.5066 39.3969 53.5184 39.3962 49.5302C39.3962 47.7482 39.3923 47.7713 37.6157 47.7805C37.0661 47.7805 36.9552 47.9791 36.9606 48.4794C36.9845 50.6348 36.9706 52.7902 36.9714 54.9509M38.1037 45.3819C41.932 45.3819 45.7601 45.3819 49.5879 45.3819C49.9936 45.3819 50.2984 45.4111 50.2946 44.8176C50.2946 44.2565 50.0875 44.1595 49.5918 44.1603C41.9859 44.1726 34.3801 44.1726 26.7742 44.1603C26.2769 44.1603 26.0814 44.2603 26.0699 44.8169C26.0606 45.4127 26.367 45.3788 26.7696 45.378C30.5476 45.3719 34.3254 45.3719 38.1029 45.378M38.1799 64.6855C36.3956 64.6855 34.6113 64.6978 32.8277 64.6778C32.352 64.6724 32.1056 64.734 32.1118 65.3136C32.1172 65.8609 32.3489 65.9025 32.7892 65.9009C36.3815 65.8886 39.9737 65.8886 43.566 65.9009C44.0079 65.9009 44.238 65.8617 44.2457 65.3097C44.2534 64.7232 44.0009 64.6693 43.5291 64.6747C41.7455 64.6939 39.9612 64.6824 38.1768 64.6831" fill="#D9BB7E"/>
</g>
</svg>
