<svg width="76" height="76" viewBox="0 0 76 76" fill="none" xmlns="http://www.w3.org/2000/svg">
<mask id="mask0_69_517" style="mask-type:luminance" maskUnits="userSpaceOnUse" x="0" y="0" width="76" height="76">
<path d="M75.6206 0.777344H0.570312V75.8299H75.6206V0.777344Z" fill="white"/>
</mask>
<g mask="url(#mask0_69_517)">
<path d="M0.570312 57.3616C0.787756 57.1365 1.05462 56.9651 1.34978 56.861C1.64494 56.7569 1.96028 56.7229 2.27084 56.7618C4.395 56.7932 6.51915 56.7662 8.64406 56.7797C9.03202 56.7958 9.41299 56.673 9.71851 56.4333C11.9562 54.7388 14.4067 53.3456 17.0072 52.2893C17.1469 52.2016 17.3041 52.1457 17.4677 52.1255C17.6314 52.1053 17.7974 52.1214 17.9542 52.1726C18.1109 52.2237 18.2545 52.3087 18.3747 52.4215C18.495 52.5343 18.589 52.6722 18.65 52.8253C18.9064 53.4327 18.644 53.9785 17.8702 54.3024C15.2087 55.4057 12.7091 56.8648 10.4398 58.64C10.1051 58.8876 9.69301 59.0078 9.27763 58.9789C7.29968 58.9669 5.32174 58.9841 3.34379 58.9631C2.90891 58.9586 2.75445 59.0659 2.7567 59.5285C2.7747 63.2644 2.7747 67.0004 2.7567 70.7364C2.7567 71.2005 2.90666 71.3152 3.34229 71.3099C4.95359 71.2904 6.56639 71.3099 8.17694 71.3002C10.5238 71.2882 12.8429 71.6301 15.1732 71.825C17.5036 72.02 19.8332 72.2457 22.1635 72.4571C25.3674 72.7473 28.59 72.9017 31.7706 73.3569C37.5103 74.1764 42.8383 72.982 47.9878 70.5317C51.7788 68.7284 55.4018 66.6155 59.09 64.6226C59.2864 64.4761 59.5212 64.3898 59.7657 64.3744C60.0103 64.3589 60.2541 64.4149 60.4674 64.5356C60.6473 64.6425 60.7906 64.8015 60.8781 64.9917C60.9657 65.1818 60.9935 65.394 60.9577 65.6003C60.9401 65.7715 60.8794 65.9355 60.7812 66.0768C60.6829 66.2182 60.5505 66.3323 60.3961 66.4086C55.2106 69.2008 50.1847 72.3176 44.583 74.2701C42.5505 75.021 40.4287 75.5032 38.2713 75.7045C38.1568 75.7312 38.0469 75.7746 37.9451 75.8334H34.5711C34.0874 75.666 33.5736 75.6039 33.064 75.6512C30.0101 75.3513 26.954 75.0829 23.8978 74.8047C21.3485 74.573 18.8052 74.3368 16.2582 74.1157C13.8806 73.9095 11.5045 73.6478 9.12243 73.5443C6.88205 73.4468 4.63343 73.5046 2.3893 73.5346C2.05729 73.5819 1.71877 73.5487 1.40223 73.438C1.08569 73.3272 0.800384 73.142 0.570313 72.898L0.570312 57.3616Z" fill="#D9BB7E"/>
<path d="M54.1415 47.8718C54.6701 47.5899 55.1844 47.3222 55.6928 47.047C58.3335 45.6074 60.7914 46.6721 61.5359 49.5963C61.6274 49.9585 61.7608 49.8887 61.9858 49.7733C62.6771 49.4119 63.3669 49.0475 64.0627 48.6943C64.585 48.3873 65.173 48.2092 65.778 48.1748C66.3829 48.1405 66.9873 48.2509 67.541 48.4968C68.0947 48.7427 68.5819 49.1171 68.962 49.589C69.3421 50.0608 69.6042 50.6165 69.7266 51.2099C69.8211 51.5795 69.8601 51.6695 70.2702 51.5743C71.2842 51.2918 72.3672 51.3998 73.3054 51.8769C74.2437 52.354 74.9689 53.1655 75.3381 54.1512C75.7072 55.1369 75.6933 56.2252 75.2992 57.2012C74.9052 58.1772 74.1595 58.97 73.2094 59.4231C70.3217 61.0041 67.4323 62.5817 64.5411 64.1558C64.339 64.3164 64.089 64.4049 63.8308 64.407C63.5727 64.4092 63.3212 64.325 63.1165 64.1677C62.9399 64.0341 62.8096 63.8487 62.7436 63.6374C62.6776 63.4261 62.6792 63.1994 62.7483 62.9891C62.8578 62.531 63.2574 62.36 63.6203 62.1643C66.49 60.6007 69.3595 59.0369 72.2287 57.4729C72.6322 57.2872 72.9645 56.9755 73.1757 56.5847C73.3869 56.194 73.4655 55.7453 73.3998 55.306C73.33 54.8671 73.1165 54.4638 72.7929 54.1592C72.4693 53.8546 72.0539 53.6659 71.6116 53.6227C71.0991 53.5881 70.5894 53.7218 70.16 54.0036C66.2198 56.148 62.3899 58.5023 58.3485 60.4518C54.2719 62.3952 49.8621 63.5434 45.3554 63.8348C41.9918 63.9782 38.6224 63.7835 35.2977 63.2537C33.8731 63.073 32.4425 62.9231 31.0142 62.7694C30.1789 62.6794 29.66 62.2483 29.657 61.614C29.654 60.9796 30.0889 60.5867 30.9317 60.4608C31.3643 60.3963 31.8007 60.3506 32.2348 60.2958C35.229 59.9179 38.2229 59.54 41.2166 59.1621C43.7029 58.851 46.1877 58.5248 48.6785 58.2489C50.1968 58.0802 50.9683 57.3604 50.8709 56.0745C50.8564 55.6426 50.6803 55.2319 50.3775 54.9237C50.0747 54.6154 49.6671 54.4321 49.2356 54.41C48.7257 54.3672 48.2106 54.3815 47.6978 54.3807C43.4489 54.3777 39.2001 54.3777 34.9513 54.3807C34.4158 54.3777 33.885 54.28 33.3835 54.0921C29.8244 52.7786 25.9841 52.4167 22.2424 53.0423C21.9446 53.1143 21.6307 53.0696 21.3648 52.9176C21.099 52.7655 20.9014 52.5174 20.8125 52.2243C20.7775 52.0693 20.7767 51.9086 20.8102 51.7533C20.8436 51.5979 20.9105 51.4518 21.0062 51.3249C21.1019 51.1981 21.2242 51.0937 21.3643 51.0189C21.5045 50.9441 21.6593 50.9008 21.818 50.892C25.7928 50.1843 29.8832 50.5202 33.6894 51.8667C33.8768 51.9374 34.0778 51.9641 34.2772 51.9448C34.4765 51.9254 34.6686 51.8604 34.8389 51.755C39.1524 49.4808 43.5244 47.311 47.7682 44.9146C50.6332 43.2973 53.6256 44.6717 54.146 47.859M40.4248 61.473C40.4867 61.5484 40.5666 61.6069 40.6572 61.6431C40.7478 61.6793 40.8461 61.692 40.9429 61.6799C46.0409 61.9636 51.1375 61.0993 55.857 59.1509C59.6704 57.5636 63.1405 55.3217 66.7574 53.3603C66.9455 53.2591 67.1113 53.1211 67.245 52.9546C67.3788 52.788 67.4776 52.5963 67.5358 52.3908C67.594 52.1853 67.6103 51.9703 67.5838 51.7583C67.5572 51.5464 67.4883 51.342 67.3812 51.1572C67.2742 50.9725 67.131 50.8111 66.9604 50.6827C66.7897 50.5543 66.595 50.4615 66.3877 50.4098C66.1805 50.3582 65.965 50.3487 65.7541 50.3819C65.5431 50.4151 65.341 50.4904 65.1596 50.6033C61.2502 52.642 57.3521 54.7031 53.4479 56.7516C53.3392 56.799 53.2424 56.87 53.1646 56.9595C53.0868 57.049 53.0299 57.1547 52.998 57.2689C52.3885 59.2934 50.9391 60.2111 48.8997 60.433C46.0962 60.7389 43.301 61.1168 40.427 61.473M39.1037 52.0031L39.1666 52.1801C41.4498 52.1801 43.7329 52.1846 46.016 52.1718C46.2092 52.1529 46.3953 52.0892 46.5596 51.9859C48.0179 51.1994 49.4703 50.4031 50.9271 49.6136C51.2566 49.4501 51.5271 49.188 51.7009 48.8638C51.8621 48.5462 51.919 48.1858 51.8634 47.834C51.8078 47.4822 51.6425 47.1569 51.3912 46.9046C51.1275 46.6282 50.7761 46.452 50.3969 46.4059C50.0177 46.3598 49.6343 46.4468 49.3121 46.6519C46.8235 47.9385 44.3447 49.2447 41.8636 50.5455C40.9421 51.0292 40.0237 51.5203 39.1044 52.0061M50.4338 52.3915C51.2981 52.7282 52.0234 53.3469 52.4919 54.1475C52.7026 54.5472 52.8908 54.5884 53.2785 54.3785C54.991 53.4502 56.7192 52.552 58.44 51.641C58.6852 51.5299 58.8981 51.3583 59.0586 51.1422C59.2191 50.9262 59.3221 50.6729 59.3578 50.4061C59.4116 50.1283 59.3842 49.8409 59.2789 49.5782C59.1736 49.3156 58.9948 49.0889 58.7639 48.9252C58.5238 48.7345 58.231 48.6219 57.9249 48.6028C57.6188 48.5836 57.3142 48.6587 57.0522 48.818C54.8958 49.9907 52.7334 51.1514 50.4218 52.399" fill="#D9BB7E"/>
<path d="M59.7744 8.64091C58.1819 6.94713 56.6823 5.35307 55.185 3.75677C55.0178 3.57832 54.8851 3.56107 54.7044 3.75302C53.2085 5.35382 51.7052 6.94863 50.2221 8.52694C50.3338 8.78112 50.5055 8.69039 50.6337 8.70839C50.8067 8.70515 50.9783 8.73921 51.1369 8.80824C51.2955 8.87728 51.4373 8.97966 51.5528 9.10844C51.6683 9.23722 51.7546 9.38936 51.806 9.55451C51.8574 9.71966 51.8727 9.89395 51.8507 10.0655C51.8597 14.2643 51.8597 18.4654 51.8507 22.6687C51.8507 23.4673 51.421 23.9524 50.765 23.9689C50.0467 23.9869 49.6403 23.5437 49.6403 22.6672C49.6335 19.0525 49.6215 15.437 49.659 11.823C49.6665 11.107 49.4491 10.8483 48.7503 10.9233C48.3357 10.9453 47.9202 10.9453 47.5056 10.9233C47.2857 10.9313 47.0684 10.8727 46.8824 10.755C46.6964 10.6374 46.5503 10.4662 46.4634 10.264C46.3764 10.0618 46.3527 9.83805 46.3952 9.6221C46.4378 9.40615 46.5447 9.20813 46.7018 9.05404C47.5661 8.1248 48.4316 7.19681 49.2984 6.27007C50.8654 4.59903 52.4372 2.92925 54.0138 1.26072C54.1152 1.11243 54.251 0.990932 54.4097 0.906643C54.5683 0.822354 54.745 0.777784 54.9247 0.776752C55.1043 0.77572 55.2815 0.818257 55.4411 0.900717C55.6007 0.983178 55.7379 1.1031 55.841 1.25022C58.2764 3.8205 60.7052 6.39678 63.1275 8.97906C63.3048 9.13065 63.4305 9.33361 63.4874 9.55983C63.5442 9.78605 63.5293 10.0243 63.4447 10.2417C63.3557 10.4718 63.1919 10.6652 62.9795 10.7908C62.7672 10.9163 62.5187 10.9667 62.2742 10.9338C61.8349 10.9248 61.3902 10.966 60.9561 10.9143C60.3495 10.8393 60.2281 11.0987 60.2288 11.6581C60.2408 20.0357 60.2408 28.4134 60.2288 36.791C60.2288 37.7928 60.2348 38.7937 60.2243 39.7955C60.2153 40.6847 59.8254 41.0799 58.9219 41.0821C56.2597 41.0891 53.5974 41.0866 50.9352 41.0746C50.0354 41.0701 49.6418 40.6802 49.6395 39.7715C49.63 35.6926 49.63 31.6137 49.6395 27.5349C49.6395 26.6651 50.0654 26.1853 50.7477 26.204C51.4075 26.225 51.8469 26.7536 51.8492 27.5866C51.8574 31.0791 51.8724 34.5724 51.8409 38.0649C51.8349 38.7263 51.9909 38.9355 52.6769 38.9092C54.214 38.8515 55.7548 38.8582 57.2919 38.9092C57.924 38.9295 58.0477 38.7128 58.0462 38.1317C58.0302 28.9237 58.0267 19.7156 58.0357 10.5071C58.0357 9.11178 58.2726 8.8351 59.7737 8.64091" fill="#D9BB7E"/>
<path d="M32.7924 29.8438C32.7924 26.5724 32.7797 23.3011 32.8037 20.0305C32.8082 19.4352 32.6499 19.1825 32.0261 19.2507C31.592 19.2987 31.1474 19.2432 30.7087 19.2635C30.4892 19.2906 30.2666 19.2471 30.0735 19.1392C29.8803 19.0314 29.7265 18.8648 29.6343 18.6637C29.5239 18.4563 29.4848 18.2184 29.5228 17.9866C29.5609 17.7548 29.6741 17.5419 29.845 17.3808C30.6068 16.556 31.3806 15.7447 32.1498 14.9274C33.7714 13.2039 35.3932 11.4807 37.0152 9.75763C37.8243 8.89987 38.3559 8.89613 39.1551 9.74414C41.4475 12.1785 43.7394 14.6133 46.0307 17.0486C46.4671 17.5105 46.872 17.9686 46.5556 18.6539C46.2647 19.2762 45.6926 19.2665 45.1152 19.2642C43.3907 19.2567 43.3952 19.2642 43.3945 20.9625C43.3945 27.1608 43.3922 33.3613 43.3877 39.5641C43.3877 40.7637 43.072 41.0884 41.8829 41.0899C39.3441 41.0934 36.8053 41.0934 34.2665 41.0899C33.1486 41.0899 32.8022 40.7262 32.8022 39.5903C32.8022 36.3412 32.8022 33.0944 32.8022 29.8498L32.7924 29.8438ZM42.7924 16.9849C42.7849 16.9384 42.7924 16.8761 42.7684 16.8477C41.3078 15.2731 39.8367 13.712 38.3866 12.13C38.0544 11.7671 37.9067 12.0243 37.7043 12.2409C36.4871 13.5406 35.2685 14.8402 34.0483 16.1399C33.7949 16.4098 33.5377 16.6775 33.231 16.9999C34.7846 17.1776 34.9946 17.4167 34.9938 18.8586C34.9938 25.3015 35.0021 31.7437 34.9781 38.1867C34.9781 38.7753 35.128 38.9237 35.7008 38.9095C37.2619 38.8713 38.8252 38.8638 40.3855 38.9132C41.0244 38.9335 41.2051 38.7723 41.2028 38.1155C41.1751 31.722 41.1848 25.3278 41.1826 18.9343C41.1826 17.4347 41.346 17.2293 42.7924 16.9849Z" fill="#D9BB7E"/>
<path d="M15.9387 33.6155C15.9387 31.5656 15.92 29.5149 15.9515 27.4672C15.959 26.9641 15.8015 26.8284 15.3322 26.8591C14.8463 26.8914 14.3574 26.8666 13.8686 26.8659C13.635 26.8843 13.4016 26.8278 13.2023 26.7048C13.0029 26.5817 12.8479 26.3984 12.7596 26.1813C12.6683 25.9786 12.6415 25.7527 12.6828 25.5343C12.7241 25.3158 12.8316 25.1153 12.9906 24.9599C15.4649 22.3297 17.9294 19.6941 20.4135 17.0774C20.9421 16.521 21.6012 16.5908 22.1957 17.2191C24.4611 19.6139 26.7205 22.011 28.9739 24.4103C29.1411 24.588 29.3233 24.7537 29.4747 24.9434C29.6348 25.0955 29.7455 25.2922 29.7926 25.508C29.8396 25.7237 29.8209 25.9486 29.7386 26.1536C29.6511 26.3702 29.4988 26.5545 29.3026 26.6813C29.1064 26.8081 28.8759 26.8713 28.6424 26.8621C28.2525 26.8696 27.8619 26.8621 27.4713 26.8621C26.54 26.8621 26.543 26.8621 26.5438 27.8234C26.5438 31.7038 26.5438 35.5842 26.5438 39.4646C26.5438 40.7888 26.2439 41.0842 24.9047 41.0842C22.4639 41.0842 20.0233 41.0842 17.583 41.0842C16.2079 41.0842 15.9372 40.7992 15.9372 39.3971C15.9372 37.4692 15.9372 35.5412 15.9372 33.6133L15.9387 33.6155ZM16.3549 24.594C17.9579 24.768 18.1476 24.9884 18.1476 26.4752C18.1476 30.3569 18.1679 34.2386 18.1304 38.1195C18.1236 38.7943 18.3261 38.9248 18.9491 38.9068C20.4857 38.8613 22.0233 38.8613 23.5619 38.9068C24.1617 38.9233 24.3461 38.7801 24.3424 38.157C24.3176 34.2513 24.3379 30.3449 24.3424 26.4393C24.3424 25.0192 24.5328 24.7995 25.9132 24.6338C25.9402 24.6338 25.9589 24.5588 26.0062 24.4755C24.5471 22.922 23.082 21.3564 21.6057 19.7984C21.4557 19.6379 21.299 19.368 21.0178 19.6664C19.501 21.2754 17.9789 22.8807 16.3556 24.597" fill="#D9BB7E"/>
</g>
</svg>
