<svg width="144" height="28" viewBox="0 0 144 28" fill="none" xmlns="http://www.w3.org/2000/svg">
<mask id="mask0_69_526" style="mask-type:luminance" maskUnits="userSpaceOnUse" x="118" y="7" width="5" height="4">
<path d="M120.63 7.64246H120.672C121.116 7.64246 121.541 7.81858 121.854 8.13209C122.168 8.44559 122.344 8.8708 122.344 9.31416C122.344 9.53361 122.301 9.75093 122.217 9.9537C122.133 10.1565 122.01 10.3407 121.855 10.4959C121.7 10.651 121.516 10.7741 121.313 10.858C121.11 10.942 120.893 10.9851 120.673 10.985H120.63C120.187 10.985 119.762 10.809 119.448 10.4957C119.135 10.1824 118.959 9.75737 118.958 9.31416C118.958 8.8708 119.135 8.44559 119.448 8.13209C119.762 7.81858 120.187 7.64246 120.63 7.64246Z" fill="white"/>
</mask>
<g mask="url(#mask0_69_526)">
<path d="M122.34 7.51224L118.831 7.64746L118.965 11.115L122.474 10.9797L122.34 7.51224Z" fill="#D9BB7E"/>
</g>
<mask id="mask1_69_526" style="mask-type:luminance" maskUnits="userSpaceOnUse" x="0" y="0" width="144" height="29">
<path d="M143.269 0.787109H0.226562V28.0023H143.269V0.787109Z" fill="white"/>
</mask>
<g mask="url(#mask1_69_526)">
<path d="M54.0744 17.7996L49.2488 11.1111C50.1899 10.7426 50.996 10.0955 51.5593 9.2564C52.1226 8.41729 52.4163 7.42618 52.4009 6.41564C52.381 5.67652 52.2154 4.94859 51.9136 4.27357C51.6119 3.59854 51.1799 2.98969 50.6425 2.48187C50.1051 1.97406 49.4727 1.57727 48.7817 1.31423C48.0907 1.0512 47.3545 0.927084 46.6155 0.949004H42.1148C41.9879 0.948664 41.8621 0.973342 41.7447 1.02163C41.6274 1.06991 41.5206 1.14086 41.4307 1.23041C41.3407 1.31995 41.2693 1.42635 41.2205 1.54352C41.1717 1.66069 41.1465 1.78632 41.1462 1.91325V4.87234C43.8615 8.88615 46.5233 12.7914 49.1799 16.738C49.3995 17.0647 49.6961 17.3323 50.0435 17.5175C50.3909 17.7026 50.7785 17.7995 51.1721 17.7996H54.0744ZM44.556 4.29327H46.743C47.301 4.3089 47.8319 4.53749 48.2267 4.93215C48.6216 5.32682 48.8504 5.85762 48.8662 6.41564C48.8722 6.97208 48.657 7.50811 48.2679 7.90593C47.8788 8.30375 47.3477 8.53079 46.7912 8.53716H45.4772C45.2329 8.53716 44.9985 8.44011 44.8258 8.26735C44.653 8.0946 44.556 7.8603 44.556 7.616V4.29327Z" fill="#D9BB7E"/>
</g>
<mask id="mask2_69_526" style="mask-type:luminance" maskUnits="userSpaceOnUse" x="41" y="14" width="4" height="4">
<path d="M42.8301 14.4551H42.8413C43.288 14.4553 43.7163 14.6329 44.032 14.9488C44.3477 15.2647 44.5251 15.6931 44.5251 16.1397C44.5251 16.5863 44.3477 17.0147 44.032 17.3306C43.7163 17.6465 43.288 17.8241 42.8413 17.8243H42.8301C42.3833 17.8243 41.9549 17.6468 41.6389 17.3309C41.323 17.015 41.1455 16.5865 41.1455 16.1397C41.1455 15.6929 41.323 15.2644 41.6389 14.9485C41.9549 14.6326 42.3833 14.4551 42.8301 14.4551Z" fill="white"/>
</mask>
<g mask="url(#mask2_69_526)">
<path d="M44.5204 14.3254L41.0159 14.4604L41.1505 17.9546L44.6551 17.8196L44.5204 14.3254Z" fill="#D9BB7E"/>
</g>
<mask id="mask3_69_526" style="mask-type:luminance" maskUnits="userSpaceOnUse" x="0" y="0" width="144" height="29">
<path d="M143.269 0.787109H0.226562V28.0023H143.269V0.787109Z" fill="white"/>
</mask>
<g mask="url(#mask3_69_526)">
<path d="M6.25583 17.8494C9.6811 17.7865 12.0482 15.9175 12.0482 12.9911C12.0482 10.4371 10.367 9.06868 7.62594 7.75975C5.75432 6.88943 4.51175 6.57836 4.51175 5.58223C4.51175 4.77309 5.44583 4.02514 6.69099 4.02514C7.30569 4.01349 7.90578 4.21302 8.39113 4.59041C8.63225 4.78113 8.92871 4.88851 9.23603 4.89643C9.54335 4.90436 9.84496 4.8124 10.0956 4.63436L11.426 3.71751C10.6772 1.72008 8.8711 0.78772 6.62981 0.78772C3.64056 0.78772 1.21143 2.65417 1.21143 5.51933C1.21143 8.13546 3.26659 9.13158 5.07271 10.0657C6.81594 10.8774 8.74701 11.8098 8.74701 13.0549C8.74701 13.8641 7.75002 14.4879 6.25497 14.5491L6.25583 17.8494Z" fill="#D9BB7E"/>
</g>
<mask id="mask4_69_526" style="mask-type:luminance" maskUnits="userSpaceOnUse" x="0" y="13" width="5" height="6">
<path d="M0.226563 16.0452C0.226563 16.4728 0.353362 16.8908 0.590927 17.2463C0.828492 17.6019 1.16615 17.879 1.56121 18.0426C1.95626 18.2063 2.39097 18.2491 2.81036 18.1657C3.22975 18.0822 3.61498 17.8763 3.91735 17.574C4.21971 17.2716 4.42562 16.8864 4.50904 16.467C4.59246 16.0476 4.54965 15.6129 4.38601 15.2178C4.22237 14.8228 3.94526 14.4851 3.58972 14.2475C3.23418 14.01 2.81618 13.8832 2.38857 13.8832C2.10458 13.8832 1.82337 13.9391 1.56101 14.0478C1.29865 14.1565 1.06027 14.3159 0.859496 14.5167C0.658724 14.7176 0.499489 14.956 0.390889 15.2184C0.282288 15.4808 0.226449 15.7612 0.226563 16.0452Z" fill="white"/>
</mask>
<g mask="url(#mask4_69_526)">
<path d="M4.54472 13.7176L0.0603027 13.8904L0.233125 18.3748L4.71754 18.202L4.54472 13.7176Z" fill="#D9BB7E"/>
</g>
<mask id="mask5_69_526" style="mask-type:luminance" maskUnits="userSpaceOnUse" x="0" y="0" width="144" height="29">
<path d="M143.269 0.787109H0.226562V28.0023H143.269V0.787109Z" fill="white"/>
</mask>
<g mask="url(#mask5_69_526)">
<path d="M117.528 14.5727V11.0345H117.533V7.62045H117.528V4.33564H123.158C123.458 4.33564 123.747 4.21625 123.959 4.00375C124.172 3.79124 124.291 3.50302 124.291 3.2025V0.987061H115.304C114.989 0.987061 114.686 1.11244 114.463 1.33561C114.24 1.55878 114.114 1.86146 114.114 2.17707V17.9152H124.29V15.7058C124.29 15.4053 124.171 15.1171 123.958 14.9046C123.746 14.692 123.457 14.5727 123.157 14.5727H117.528Z" fill="#D9BB7E"/>
</g>
<mask id="mask6_69_526" style="mask-type:luminance" maskUnits="userSpaceOnUse" x="89" y="13" width="5" height="5">
<path d="M89.9294 13.8851L90.7739 15.7068L91.6167 17.5293L92.462 15.7068L93.3504 13.8851H89.9294Z" fill="white"/>
</mask>
<g mask="url(#mask6_69_526)">
<path d="M93.3456 13.7528L89.7886 13.8899L89.9339 17.6605L93.4909 17.5234L93.3456 13.7528Z" fill="#D9BB7E"/>
</g>
<mask id="mask7_69_526" style="mask-type:luminance" maskUnits="userSpaceOnUse" x="0" y="0" width="144" height="29">
<path d="M143.269 0.787109H0.226562V28.0023H143.269V0.787109Z" fill="white"/>
</mask>
<g mask="url(#mask7_69_526)">
<path d="M91.3231 7.01483C91.2481 7.08676 91.196 7.17936 91.1735 7.28089C91.1511 7.38242 91.1592 7.48833 91.197 7.58522C91.2347 7.68212 91.3004 7.76563 91.3856 7.82521C91.4709 7.88479 91.5718 7.91774 91.6758 7.91992C91.7798 7.92209 91.882 7.89337 91.9697 7.83741C92.0573 7.78144 92.1264 7.70074 92.1682 7.6055C92.2099 7.51027 92.2225 7.4048 92.2043 7.30241C92.1861 7.20003 92.1379 7.10535 92.0659 7.03034C92.0183 6.98028 91.9613 6.94014 91.8981 6.91224C91.8349 6.88434 91.7668 6.86923 91.6978 6.86779C91.6287 6.86635 91.5601 6.8786 91.4958 6.90384C91.4315 6.92907 91.3728 6.9668 91.3231 7.01483Z" fill="#D9BB7E"/>
<path d="M91.6464 0.949585V0.968542L91.6275 0.949585L83.1897 17.8252H85.0941C85.4672 17.8251 85.8331 17.7214 86.1508 17.5255C86.4685 17.3297 86.7255 17.0495 86.8933 16.7162L88.8175 12.8945C89.0451 12.4333 89.3833 12.0356 89.8021 11.7369C90.2209 11.4383 90.7071 11.2481 91.2173 11.1832C91.1865 11.0564 91.1643 10.9277 91.151 10.798C91.151 10.7523 91.151 10.7058 91.1449 10.6592C91.1435 10.6506 91.1441 10.6417 91.1465 10.6332C91.1489 10.6248 91.1531 10.617 91.1589 10.6103C91.1646 10.6037 91.1717 10.5984 91.1797 10.5948C91.1878 10.5912 91.1965 10.5893 91.2053 10.5894C91.2199 10.5884 91.2346 10.5884 91.2492 10.5894C91.5077 10.5894 91.774 10.5955 92.0359 10.6007C92.0676 10.6036 92.099 10.6091 92.1299 10.617C92.134 10.6395 92.1369 10.6623 92.1385 10.6851C92.1342 10.8547 92.1052 11.0228 92.0523 11.184C92.5653 11.2474 93.0545 11.4375 93.4757 11.7372C93.897 12.0368 94.237 12.4366 94.4651 12.9005L96.2634 16.4852C96.4657 16.8885 96.7761 17.2276 97.1601 17.4646C97.544 17.7015 97.9864 17.827 98.4375 17.8269H100.083L91.6464 0.949585ZM93.3698 10.9324C93.3698 10.9798 93.3647 11.0272 93.3612 11.0746L93.3259 11.1091C93.3038 11.1119 93.2813 11.1095 93.2602 11.1022C93.2391 11.0949 93.22 11.0828 93.2044 11.0668C92.9855 10.9031 92.7675 10.7385 92.5478 10.5757C92.5018 10.5433 92.4632 10.5015 92.4345 10.453C92.4058 10.4046 92.3878 10.3507 92.3815 10.2947C92.3729 10.2241 92.3599 10.2086 92.2884 10.2086L90.9864 10.1913C90.9166 10.1913 90.9002 10.2034 90.8942 10.2715C90.8888 10.3224 90.8729 10.3717 90.8475 10.4161C90.8222 10.4606 90.7879 10.4994 90.7468 10.53C90.5124 10.6972 90.2763 10.8626 90.0411 11.0298C90.0247 11.0434 90.0057 11.0533 89.9851 11.0589C89.9646 11.0646 89.9432 11.0658 89.9222 11.0625L89.9015 11.041C89.8945 11.0127 89.8899 10.9839 89.8877 10.9548C89.8946 10.3904 89.9015 9.82598 89.911 9.26243C89.9109 9.20592 89.9256 9.15039 89.9538 9.10139C89.9819 9.05238 90.0224 9.01164 90.0712 8.98324C90.1454 8.9367 90.2186 8.88845 90.2962 8.84967C90.3372 8.83079 90.3717 8.80016 90.3953 8.76166C90.4189 8.72316 90.4306 8.67852 90.4289 8.63339C90.451 8.22304 90.513 7.81583 90.6141 7.41752C90.697 7.0539 90.8308 6.70376 91.0114 6.37745C91.1022 6.20872 91.2268 6.06057 91.3776 5.94229C91.4583 5.87964 91.5565 5.84346 91.6586 5.83868C91.7607 5.83389 91.8618 5.86075 91.948 5.91558C92.1258 6.03677 92.2697 6.20139 92.366 6.39382C92.5102 6.65506 92.6213 6.93323 92.6969 7.22192C92.8338 7.72006 92.9088 8.23321 92.92 8.74971C92.9194 8.77342 92.9253 8.79684 92.9372 8.81737C92.9491 8.83791 92.9664 8.85475 92.9872 8.86604C93.0648 8.91258 93.1406 8.96256 93.2165 9.01081C93.272 9.0435 93.3175 9.09087 93.3479 9.14773C93.3783 9.20458 93.3925 9.26872 93.3888 9.33309C93.3811 9.86562 93.3742 10.399 93.3664 10.9315" fill="#D9BB7E"/>
</g>
<mask id="mask8_69_526" style="mask-type:luminance" maskUnits="userSpaceOnUse" x="17" y="14" width="4" height="4">
<path d="M17.2698 17.8507H20.0272C20.1808 17.8507 20.3281 17.7897 20.4367 17.6811C20.5453 17.5725 20.6063 17.4252 20.6063 17.2716V14.8795L17.2698 17.8507Z" fill="white"/>
</mask>
<g mask="url(#mask8_69_526)">
<path d="M20.6003 14.7508L17.156 14.8835L17.2753 17.9791L20.7196 17.8463L20.6003 14.7508Z" fill="#D9BB7E"/>
</g>
<mask id="mask9_69_526" style="mask-type:luminance" maskUnits="userSpaceOnUse" x="58" y="14" width="4" height="4">
<path d="M58.1309 17.8514H60.8883C61.0419 17.8514 61.1892 17.7904 61.2978 17.6818C61.4064 17.5732 61.4674 17.4259 61.4674 17.2723V14.8802L58.1309 17.8514Z" fill="white"/>
</mask>
<g mask="url(#mask9_69_526)">
<path d="M61.4621 14.7515L58.0178 14.8843L58.1371 17.9798L61.5814 17.8471L61.4621 14.7515Z" fill="#D9BB7E"/>
</g>
<mask id="mask10_69_526" style="mask-type:luminance" maskUnits="userSpaceOnUse" x="0" y="0" width="144" height="29">
<path d="M143.269 0.787109H0.226562V28.0023H143.269V0.787109Z" fill="white"/>
</mask>
<g mask="url(#mask10_69_526)">
<path d="M101.799 0.994629C100.571 0.994629 99.5745 2.41299 99.5745 4.16311H104.126V17.3368L107.166 14.5871C107.262 14.4999 107.339 14.3935 107.392 14.2748C107.445 14.1561 107.472 14.0276 107.472 13.8978V4.16311H110.067C111.296 4.16311 112.619 2.74475 112.619 0.994629H101.799Z" fill="#D9BB7E"/>
<path d="M55.7918 0.994629C54.563 0.994629 53.5669 2.41299 53.5669 4.16311H58.1193V17.3368L61.1594 14.5871C61.2556 14.4999 61.3325 14.3935 61.3852 14.2748C61.4379 14.1561 61.4651 14.0276 61.4653 13.8978V4.16311H64.0607C65.2895 4.16311 66.6122 2.74475 66.6122 0.994629H55.7918Z" fill="#D9BB7E"/>
<path d="M14.8804 0.994629C13.6516 0.994629 12.6555 2.41299 12.6555 4.16311H17.2079V17.3368L20.248 14.5871C20.3442 14.4999 20.4211 14.3935 20.4738 14.2748C20.5265 14.1561 20.5538 14.0276 20.5539 13.8978V4.16311H23.1502C24.379 4.16311 25.7017 2.74475 25.7017 0.994629H14.8804Z" fill="#D9BB7E"/>
</g>
<mask id="mask11_69_526" style="mask-type:luminance" maskUnits="userSpaceOnUse" x="104" y="14" width="4" height="4">
<path d="M104.143 17.8507H106.9C107.054 17.8507 107.201 17.7897 107.31 17.6811C107.418 17.5725 107.479 17.4252 107.479 17.2716V14.8795L104.143 17.8507Z" fill="white"/>
</mask>
<g mask="url(#mask11_69_526)">
<path d="M107.472 14.7508L104.028 14.8835L104.147 17.9791L107.591 17.8463L107.472 14.7508Z" fill="#D9BB7E"/>
</g>
<mask id="mask12_69_526" style="mask-type:luminance" maskUnits="userSpaceOnUse" x="29" y="14" width="5" height="4">
<path d="M30.7996 15.995L29.9077 17.8236H33.3433L32.4954 15.995L31.6449 14.1656L30.7996 15.995Z" fill="white"/>
</mask>
<g mask="url(#mask12_69_526)">
<path d="M33.3377 14.0327L29.7668 14.1703L29.9127 17.9547L33.4835 17.817L33.3377 14.0327Z" fill="#D9BB7E"/>
</g>
<mask id="mask13_69_526" style="mask-type:luminance" maskUnits="userSpaceOnUse" x="0" y="0" width="144" height="29">
<path d="M143.269 0.787109H0.226562V28.0023H143.269V0.787109Z" fill="white"/>
</mask>
<g mask="url(#mask13_69_526)">
<path d="M36.2853 16.4749L32.5904 9.11077C32.5013 8.9332 32.3645 8.78391 32.1955 8.67958C32.0264 8.57526 31.8317 8.52001 31.633 8.52001C31.4343 8.52001 31.2396 8.57526 31.0705 8.67958C30.9015 8.78391 30.7647 8.9332 30.6757 9.11077L26.8488 16.7101C26.6805 17.0461 26.4222 17.3287 26.1027 17.5265C25.7832 17.7243 25.415 17.8295 25.0393 17.8303H23.1194L31.6123 0.833252L31.6313 0.852209V0.833252L40.1277 17.8252H38.4715C38.0173 17.8252 37.5721 17.6989 37.1856 17.4604C36.7991 17.222 36.4865 16.8808 36.2828 16.4749" fill="#D9BB7E"/>
<path d="M82.8776 8.43614H75.2533V10.1966C75.2533 10.3642 75.2863 10.5301 75.3504 10.685C75.4146 10.8398 75.5086 10.9805 75.6271 11.099C75.7456 11.2175 75.8863 11.3115 76.0411 11.3756C76.1959 11.4398 76.3619 11.4728 76.5295 11.4728H79.4679C79.3447 13.4547 77.6704 14.6344 75.3774 14.6344C74.4298 14.669 73.4907 14.445 72.6608 13.9863C71.8308 13.5277 71.1414 12.8518 70.6664 12.0312L69.7367 12.5887L67.8142 13.7037C68.5692 14.989 69.6473 16.0543 70.9414 16.794C72.2356 17.5336 73.7007 17.9218 75.1912 17.92C79.4679 17.92 82.9397 14.9446 82.9397 9.80022C82.9487 9.34466 82.928 8.889 82.8776 8.43614ZM70.6673 6.82476C71.1262 6.06343 71.7707 5.43091 72.5404 4.98634C73.3102 4.54178 74.1801 4.2997 75.0689 4.28273C76.2219 4.30856 77.3364 4.70261 78.2494 5.40726C78.5041 5.5997 78.8247 5.68336 79.1409 5.63992C79.4572 5.59647 79.7433 5.42946 79.9367 5.17546C79.9513 5.15736 79.9642 5.13754 79.9772 5.11859L81.0181 3.53822C79.4296 1.96662 77.3026 1.05839 75.0689 0.997925C73.5959 0.999602 72.1495 1.39022 70.8759 2.13028C69.6023 2.87034 68.5467 3.9336 67.8159 5.21251L69.7384 6.32755L70.6673 6.82476Z" fill="#D9BB7E"/>
</g>
<mask id="mask14_69_526" style="mask-type:luminance" maskUnits="userSpaceOnUse" x="66" y="7" width="5" height="5">
<path d="M66.0298 9.42831C66.0298 9.85745 66.157 10.277 66.3954 10.6338C66.6339 10.9906 66.9727 11.2687 67.3692 11.4329C67.7657 11.5971 68.2019 11.6401 68.6228 11.5564C69.0437 11.4727 69.4304 11.266 69.7338 10.9626C70.0373 10.6591 70.2439 10.2725 70.3276 9.85161C70.4113 9.43072 70.3684 8.99445 70.2042 8.59798C70.0399 8.2015 69.7618 7.86263 69.405 7.62422C69.0482 7.3858 68.6287 7.25854 68.1996 7.25854C67.6241 7.25854 67.0722 7.48715 66.6653 7.89406C66.2584 8.30097 66.0298 8.85285 66.0298 9.42831Z" fill="white"/>
</mask>
<g mask="url(#mask14_69_526)">
<path d="M70.3645 7.08841L65.8657 7.26404L66.0413 11.7628L70.5401 11.5872L70.3645 7.08841Z" fill="#D9BB7E"/>
</g>
<mask id="mask15_69_526" style="mask-type:luminance" maskUnits="userSpaceOnUse" x="0" y="0" width="144" height="29">
<path d="M143.269 0.787109H0.226562V28.0023H143.269V0.787109Z" fill="white"/>
</mask>
<g mask="url(#mask15_69_526)">
<path d="M5.57145 23.5068H1.79978C1.81789 23.897 1.98985 24.2641 2.27803 24.5279C2.57221 24.7938 2.95791 24.9356 3.35429 24.9234C3.5293 24.9245 3.70351 24.8998 3.87132 24.8501C4.01335 24.8109 4.14955 24.7529 4.27631 24.6778C4.37535 24.6165 4.46929 24.5473 4.55723 24.471C4.62025 24.419 4.67591 24.3587 4.72268 24.2918L4.77783 24.2185L5.39394 24.7795C5.37556 24.8099 5.34942 24.8481 5.31553 24.8941C5.24176 24.9809 5.16169 25.0621 5.07598 25.1371C4.9498 25.2541 4.81275 25.3589 4.66667 25.4499C4.4806 25.5585 4.28096 25.6419 4.07295 25.6981C3.81748 25.7729 3.55244 25.8101 3.28622 25.8084C2.95671 25.8184 2.62855 25.7621 2.32123 25.6428C2.01392 25.5235 1.73373 25.3436 1.49733 25.1138C1.26454 24.8903 1.08094 24.6206 0.958238 24.3221C0.835535 24.0236 0.776431 23.7027 0.784697 23.3801C0.778221 23.053 0.839403 22.7281 0.964405 22.4257C1.08941 22.1234 1.27553 21.8501 1.51111 21.6231C1.74449 21.3888 2.023 21.2044 2.32976 21.0811C2.63652 20.9577 2.96514 20.8979 3.2957 20.9053C3.60111 20.9001 3.90436 20.9574 4.1868 21.0738C4.46924 21.1901 4.72491 21.3629 4.9381 21.5817C5.15559 21.7918 5.32774 22.0443 5.44392 22.3235C5.56011 22.6027 5.61789 22.9028 5.61368 23.2052L5.57145 23.5068ZM3.27933 21.6765C2.93668 21.6679 2.60167 21.7784 2.33145 21.9893C2.06907 22.1958 1.88957 22.4897 1.82563 22.8174H4.64254C4.59535 22.4949 4.42977 22.2015 4.17808 21.9945C3.92661 21.7836 3.60744 21.6707 3.27933 21.6765Z" fill="#D9BB7E"/>
<path d="M10.2393 24.3074L10.9286 24.9511C10.9105 24.9761 10.8838 25.0063 10.8502 25.0433C10.7787 25.1149 10.7033 25.1825 10.6245 25.2458C10.5081 25.3426 10.3836 25.4291 10.2522 25.5043C10.0852 25.5953 9.90748 25.6647 9.72312 25.7111C9.50144 25.7726 9.27242 25.8037 9.04237 25.8033C8.71251 25.8133 8.38404 25.7565 8.07664 25.6364C7.76925 25.5163 7.48927 25.3354 7.25348 25.1045C6.79371 24.6388 6.53741 24.0098 6.5408 23.3554C6.5442 22.701 6.807 22.0746 7.27158 21.6137C7.50984 21.3794 7.79287 21.1955 8.10376 21.0729C8.41466 20.9503 8.74707 20.8916 9.08115 20.9003C9.29956 20.8994 9.51723 20.9258 9.72915 20.9787C9.90727 21.0201 10.0791 21.085 10.2401 21.1717C10.364 21.2414 10.4837 21.3182 10.5986 21.4018C10.6796 21.4592 10.7565 21.5222 10.8287 21.5905L10.8933 21.6766L10.2039 22.3479C10.1729 22.3109 10.1307 22.2617 10.0756 22.2049C9.96203 22.1096 9.83479 22.0321 9.69813 21.9748C9.50041 21.8794 9.28346 21.8304 9.06392 21.8318C8.86414 21.8268 8.66548 21.863 8.48031 21.9382C8.29514 22.0133 8.12744 22.1258 7.98765 22.2686C7.71008 22.5618 7.55539 22.9502 7.55539 23.354C7.55539 23.7577 7.71008 24.1461 7.98765 24.4393C8.12738 24.5822 8.29507 24.6947 8.48025 24.7699C8.66543 24.845 8.86413 24.8812 9.06392 24.8761C9.21162 24.8771 9.35871 24.857 9.5008 24.8167C9.61904 24.7856 9.73221 24.7377 9.83686 24.6745C9.91554 24.6246 9.99068 24.5693 10.0618 24.5091C10.113 24.4672 10.1605 24.4211 10.2039 24.3712L10.2393 24.3074Z" fill="#D9BB7E"/>
<path d="M12.1634 21.6172C12.4017 21.3829 12.6847 21.1989 12.9956 21.0763C13.3065 20.9538 13.6389 20.895 13.973 20.9037C14.3025 20.8938 14.6306 20.9501 14.9379 21.0694C15.2452 21.1887 15.5254 21.3686 15.7619 21.5982C15.9944 21.822 16.1778 22.0917 16.3005 22.3902C16.4232 22.6886 16.4825 23.0094 16.4745 23.332C16.4808 23.6595 16.4191 23.9848 16.2932 24.2873C16.1672 24.5897 15.9799 24.8627 15.7429 25.089C15.5053 25.3245 15.2225 25.5095 14.9115 25.6328C14.6005 25.7562 14.2678 25.8153 13.9334 25.8068C13.6035 25.8168 13.275 25.76 12.9676 25.6399C12.6602 25.5198 12.3802 25.3389 12.1445 25.108C11.6845 24.6424 11.428 24.0133 11.4314 23.3588C11.4348 22.7044 11.6986 22.078 12.1634 21.6172ZM12.8752 24.441C13.1635 24.7217 13.55 24.8787 13.9523 24.8787C14.3547 24.8787 14.7411 24.7217 15.0294 24.441C15.307 24.1478 15.4617 23.7594 15.4617 23.3557C15.4617 22.9519 15.307 22.5636 15.0294 22.2704C14.7411 21.9897 14.3547 21.8327 13.9523 21.8327C13.55 21.8327 13.1635 21.9897 12.8752 22.2704C12.5976 22.5636 12.4429 22.9519 12.4429 23.3557C12.4429 23.7594 12.5976 24.1478 12.8752 24.441Z" fill="#D9BB7E"/>
<path d="M19.3874 22.9193C20.3686 23.2014 20.8592 23.6828 20.8592 24.3635C20.8628 24.5613 20.8212 24.7572 20.7376 24.9364C20.6539 25.1156 20.5305 25.2733 20.3766 25.3976C19.9972 25.6891 19.5256 25.8344 19.0479 25.8069C18.7163 25.8088 18.3868 25.7546 18.0733 25.6466C17.8378 25.5745 17.6145 25.4676 17.4106 25.3295L17.2073 25.1598L17.6485 24.4971C17.6916 24.5342 17.7545 24.5833 17.8372 24.6445C17.992 24.7418 18.157 24.8218 18.3292 24.8832C18.5597 24.9784 18.8063 25.0284 19.0556 25.0305C19.2661 25.0424 19.4746 24.9842 19.6485 24.8651C19.7145 24.82 19.7687 24.7596 19.8064 24.6891C19.844 24.6186 19.8641 24.54 19.8648 24.4601C19.8641 24.3709 19.8431 24.283 19.8032 24.2032C19.7633 24.1235 19.7057 24.0539 19.6347 23.9999C19.3636 23.8175 19.0613 23.6867 18.7428 23.6139C18.3732 23.5214 18.0341 23.3343 17.7588 23.071C17.6478 22.9635 17.5597 22.8348 17.4996 22.6925C17.4395 22.5503 17.4087 22.3973 17.4089 22.2429C17.4089 22.0604 17.4503 21.8802 17.53 21.7161C17.6097 21.5519 17.7257 21.4079 17.8691 21.295C18.2311 21.0158 18.6819 20.8769 19.1383 20.9038C19.4292 20.9033 19.7182 20.9501 19.994 21.0425C20.2069 21.106 20.4099 21.1988 20.5972 21.3183L20.7902 21.4562L20.3396 22.1274C20.3028 22.097 20.2508 22.0556 20.1836 22.0033C20.0555 21.9201 19.9181 21.8522 19.7743 21.8008C19.5803 21.7204 19.3725 21.6783 19.1625 21.6768C18.966 21.6647 18.7709 21.7161 18.6058 21.8232C18.5468 21.861 18.4979 21.9127 18.4634 21.9736C18.4289 22.0346 18.4097 22.1031 18.4076 22.1731C18.4093 22.2524 18.4288 22.3304 18.4645 22.4012C18.5003 22.4721 18.5516 22.534 18.6144 22.5824C18.8452 22.7449 19.1063 22.8592 19.3822 22.9185" fill="#D9BB7E"/>
<path d="M23.33 25.6625L21.4102 20.9963H22.5304L23.8229 24.4268L25.2016 20.9963H26.2857L24.3262 25.7607C24.2181 26.1819 23.9772 26.5571 23.6391 26.8306C23.3011 27.1041 22.8839 27.2613 22.4494 27.279C22.2622 27.2799 22.0756 27.2582 21.8936 27.2144C21.7645 27.1879 21.6393 27.1447 21.5213 27.086L21.411 27.0214L21.7333 26.2027C21.934 26.3273 22.169 26.3852 22.4046 26.3682C22.6138 26.3639 22.8163 26.2932 22.9828 26.1664C23.1493 26.0396 23.2703 25.8631 23.33 25.6625Z" fill="#D9BB7E"/>
<path d="M28.7414 22.9193C29.7226 23.2014 30.2132 23.6828 30.2132 24.3635C30.2168 24.5613 30.1752 24.7572 30.0916 24.9364C30.0079 25.1156 29.8845 25.2733 29.7306 25.3976C29.3512 25.6891 28.8796 25.8344 28.4019 25.8069C28.0703 25.8088 27.7408 25.7546 27.4273 25.6466C27.1919 25.5745 26.9685 25.4676 26.7646 25.3295L26.5613 25.1598L27.0025 24.4971C27.0456 24.5342 27.1085 24.5833 27.1912 24.6445C27.346 24.7418 27.511 24.8218 27.6832 24.8832C27.9137 24.9784 28.1603 25.0284 28.4096 25.0305C28.6201 25.0424 28.8286 24.9842 29.0025 24.8651C29.0685 24.82 29.1227 24.7596 29.1604 24.6891C29.198 24.6186 29.2181 24.54 29.2188 24.4601C29.2181 24.3709 29.1971 24.283 29.1572 24.2032C29.1173 24.1235 29.0597 24.0539 28.9887 23.9999C28.7176 23.8175 28.4153 23.6867 28.0968 23.6139C27.7272 23.5214 27.3881 23.3343 27.1128 23.071C27.0019 22.9635 26.9137 22.8348 26.8536 22.6925C26.7935 22.5503 26.7627 22.3973 26.7629 22.2429C26.7629 22.0604 26.8043 21.8802 26.884 21.7161C26.9637 21.5519 27.0797 21.4079 27.2231 21.295C27.5851 21.0158 28.0359 20.8769 28.4924 20.9038C28.7832 20.9033 29.0722 20.9501 29.348 21.0425C29.5609 21.106 29.7639 21.1988 29.9512 21.3183L30.1442 21.4562L29.6936 22.1274C29.6568 22.097 29.6048 22.0556 29.5376 22.0033C29.4095 21.9201 29.2722 21.8522 29.1283 21.8008C28.9343 21.7204 28.7265 21.6783 28.5165 21.6768C28.32 21.6647 28.1249 21.7161 27.9598 21.8232C27.901 21.8611 27.8523 21.9128 27.8179 21.9738C27.7835 22.0347 27.7645 22.1031 27.7625 22.1731C27.7642 22.2524 27.7836 22.3304 27.8194 22.4012C27.8552 22.4721 27.9064 22.534 27.9693 22.5824C28.2 22.7449 28.4612 22.8592 28.7371 22.9185" fill="#D9BB7E"/>
<path d="M32.7883 19.8286V20.9971H34.4436V21.8062H32.7883V24.0785C32.7883 24.6122 33.0243 24.8791 33.4966 24.8791C33.6276 24.8785 33.7584 24.8679 33.8878 24.8472C34.0257 24.8259 34.1314 24.8061 34.2049 24.7877L34.3152 24.7601L34.4436 25.5977C34.0711 25.7523 33.6695 25.8243 33.2665 25.8088C33.0649 25.8294 32.8613 25.8047 32.6706 25.7364C32.4798 25.6682 32.3067 25.5582 32.1639 25.4145C32.0211 25.2708 31.9122 25.097 31.8452 24.9058C31.7782 24.7146 31.7548 24.5109 31.7766 24.3095V21.8105H30.8572V21.0014H31.7766V19.8286H32.7883Z" fill="#D9BB7E"/>
<path d="M39.9638 23.5068H36.1921C36.2102 23.897 36.3822 24.2641 36.6704 24.5279C36.9645 24.7938 37.3503 24.9356 37.7466 24.9234C37.9216 24.9245 38.0958 24.8998 38.2636 24.8501C38.4057 24.8109 38.5419 24.753 38.6687 24.6778C38.7677 24.6165 38.8616 24.5473 38.9496 24.471C39.0126 24.419 39.0683 24.3587 39.115 24.2918L39.1702 24.2185L39.7863 24.7795C39.7679 24.8099 39.7418 24.8481 39.7079 24.8941C39.6341 24.9809 39.554 25.0621 39.4683 25.1371C39.3422 25.2541 39.2051 25.3589 39.059 25.4499C38.8729 25.5585 38.6733 25.642 38.4653 25.6981C38.2098 25.7729 37.9448 25.8101 37.6786 25.8084C37.349 25.8184 37.0209 25.7621 36.7136 25.6428C36.4063 25.5235 36.1261 25.3436 35.8897 25.1138C35.6569 24.8903 35.4733 24.6206 35.3506 24.3221C35.2279 24.0236 35.1688 23.7027 35.177 23.3801C35.1706 23.053 35.2317 22.7281 35.3567 22.4257C35.4817 22.1234 35.6679 21.8501 35.9034 21.6231C36.1368 21.3888 36.4153 21.2044 36.7221 21.0811C37.0288 20.9577 37.3575 20.8979 37.688 20.9053C37.9913 20.904 38.2918 20.9625 38.5724 21.0774C38.853 21.1924 39.1082 21.3614 39.3235 21.575C39.5387 21.7886 39.7098 22.0425 39.8269 22.3222C39.944 22.6019 40.0049 22.9019 40.006 23.2052L39.9638 23.5068ZM37.6734 21.6765C37.3307 21.6679 36.9957 21.7784 36.7255 21.9893C36.4631 22.1958 36.2836 22.4897 36.2197 22.8174H39.0349C38.9878 22.4949 38.8222 22.2015 38.5704 21.9945C38.3193 21.7843 38.0008 21.6708 37.6734 21.6765Z" fill="#D9BB7E"/>
<path d="M41.2041 25.7146V20.9959H42.096L42.1511 21.7964C42.28 21.5865 42.449 21.404 42.6486 21.2595C42.8481 21.115 43.0742 21.0114 43.314 20.9545C43.5537 20.8977 43.8023 20.8888 44.0455 20.9282C44.2886 20.9677 44.5216 21.0549 44.7311 21.1846C45.0249 21.3831 45.2461 21.672 45.361 22.0076C45.4957 21.6685 45.7339 21.3805 46.0417 21.1846C46.3524 20.9941 46.7113 20.8966 47.0757 20.9037C47.3117 20.8972 47.5463 20.9406 47.7643 21.031C47.9823 21.1214 48.1787 21.2569 48.3407 21.4285C48.6975 21.8397 48.8777 22.3751 48.8422 22.9184V25.7146H47.8263V23.2493C47.8547 22.8703 47.7471 22.4936 47.523 22.1868C47.4279 22.0725 47.3082 21.9813 47.1729 21.92C47.0375 21.8586 46.89 21.8288 46.7414 21.8326C46.5806 21.8276 46.4205 21.8556 46.271 21.9149C46.1214 21.9742 45.9856 22.0635 45.8719 22.1773C45.7469 22.3227 45.652 22.4915 45.5929 22.6739C45.5337 22.8563 45.5114 23.0487 45.5273 23.2398V25.7146H44.5156V23.2493C44.5441 22.8703 44.4366 22.4936 44.2123 22.1868C44.1173 22.0725 43.9976 21.9812 43.8622 21.9199C43.7269 21.8585 43.5793 21.8287 43.4307 21.8326C43.27 21.8277 43.1099 21.8557 42.9603 21.915C42.8108 21.9743 42.675 22.0635 42.5613 22.1773C42.4363 22.3227 42.3414 22.4916 42.2823 22.6739C42.2231 22.8563 42.2008 23.0487 42.2166 23.2398V25.7146H41.2041Z" fill="#D9BB7E"/>
<path d="M53.0437 25.7147V21.0615H53.366L53.4116 22.0274C53.5661 21.6925 53.8183 21.4121 54.1352 21.2232C54.452 21.0344 54.8186 20.9458 55.1868 20.9693C55.5628 20.9639 55.9306 21.08 56.2354 21.3002C56.5583 21.5447 56.7886 21.8917 56.8886 22.2842C57.0132 21.8813 57.2712 21.5327 57.6202 21.2959C57.9644 21.0753 58.3662 20.9616 58.7749 20.9693C59.0175 20.9641 59.2585 21.011 59.4815 21.1069C59.7045 21.2028 59.9043 21.3454 60.0674 21.5251C60.4415 21.98 60.6266 22.5611 60.5845 23.1485V25.7147H60.2165V23.2674C60.2574 22.7407 60.1041 22.2172 59.7857 21.7956C59.655 21.6405 59.4915 21.5163 59.3071 21.4319C59.1226 21.3476 58.9217 21.3052 58.7189 21.3079C58.4934 21.3009 58.2689 21.341 58.0598 21.4257C57.8508 21.5105 57.6617 21.6379 57.5047 21.8C57.1487 22.2319 56.9682 22.7818 56.9989 23.3407V25.7138H56.631V23.2666C56.6718 22.7398 56.5185 22.2164 56.2001 21.7948C56.0695 21.6396 55.906 21.5154 55.7215 21.4311C55.537 21.3467 55.3361 21.3044 55.1333 21.3071C54.9078 21.3001 54.6834 21.3402 54.4743 21.4249C54.2653 21.5097 54.0762 21.6371 53.9192 21.7991C53.5633 22.231 53.3827 22.781 53.4134 23.3398V25.713L53.0437 25.7147Z" fill="#D9BB7E"/>
<path d="M66.6201 23.2874V23.3236H62.334V23.3883C62.326 23.6628 62.3739 23.9361 62.475 24.1915C62.576 24.4469 62.728 24.6791 62.9216 24.8738C63.1118 25.0683 63.34 25.2215 63.5921 25.3236C63.8442 25.4258 64.1146 25.4748 64.3865 25.4675C64.6146 25.4695 64.8414 25.4337 65.0578 25.3616C65.24 25.3039 65.4121 25.2181 65.5679 25.1074C65.6899 25.0177 65.8051 24.9192 65.9126 24.8127C65.9933 24.7355 66.0642 24.6486 66.1237 24.5541L66.191 24.455L66.4581 24.611L66.384 24.7411C66.3141 24.844 66.2354 24.9406 66.1487 25.0298C66.0265 25.1646 65.8908 25.2864 65.7437 25.3934C65.5635 25.5158 65.3668 25.6119 65.1595 25.6787C64.8262 25.7926 64.4722 25.8323 64.122 25.7952C63.7718 25.7581 63.4339 25.645 63.1319 25.4638C62.83 25.2826 62.5712 25.0377 62.3737 24.7462C62.1762 24.4546 62.0447 24.1235 61.9884 23.7758C61.9321 23.4282 61.9524 23.0725 62.0478 22.7335C62.1432 22.3945 62.3114 22.0804 62.5408 21.8132C62.7701 21.546 63.055 21.332 63.3756 21.1863C63.6962 21.0406 64.0447 20.9666 64.3969 20.9695C64.6909 20.9667 64.9823 21.0253 65.2524 21.1417C65.5224 21.258 65.7652 21.4295 65.9652 21.645C66.1792 21.8608 66.3477 22.1174 66.4606 22.3995C66.5735 22.6816 66.6286 22.9836 66.6226 23.2874M64.3874 21.3055C63.9017 21.2974 63.4296 21.4658 63.0587 21.7795C62.6864 22.0874 62.4394 22.5207 62.3641 22.9979H66.2366C66.1781 22.5332 65.9546 22.1051 65.6067 21.7915C65.2779 21.4792 64.8409 21.3063 64.3874 21.309" fill="#D9BB7E"/>
<path d="M68.0908 25.7147V21.0615H68.4122L68.4579 22.0274C68.6124 21.6925 68.8646 21.4121 69.1814 21.2232C69.4983 21.0344 69.8649 20.9458 70.233 20.9693C70.6091 20.9639 70.9768 21.08 71.2817 21.3002C71.6046 21.5447 71.8349 21.8917 71.9349 22.2842C72.0595 21.8813 72.3175 21.5328 72.6665 21.2959C73.0106 21.0753 73.4124 20.9616 73.8211 20.9693C74.0638 20.9641 74.3048 21.011 74.5277 21.1069C74.7507 21.2028 74.9505 21.3454 75.1137 21.5251C75.4877 21.98 75.6728 22.5611 75.6307 23.1485V25.7147H75.2628V23.2674C75.3037 22.7407 75.1504 22.2172 74.8319 21.7956C74.7013 21.6405 74.5378 21.5163 74.3533 21.4319C74.1688 21.3476 73.9679 21.3052 73.7651 21.3079C73.5396 21.3009 73.3152 21.341 73.1061 21.4257C72.897 21.5105 72.708 21.6379 72.551 21.8C72.195 22.2319 72.0145 22.7818 72.0452 23.3407V25.7138H71.6772V23.2666C71.7174 22.7407 71.5642 22.2183 71.2464 21.7974C71.1157 21.6422 70.9522 21.518 70.7678 21.4337C70.5833 21.3493 70.3824 21.307 70.1796 21.3097C69.9541 21.3026 69.7296 21.3427 69.5205 21.4275C69.3115 21.5122 69.1224 21.6397 68.9654 21.8017C68.6095 22.2336 68.429 22.7836 68.4596 23.3424V25.7155L68.0908 25.7147Z" fill="#D9BB7E"/>
<path d="M77.3813 25.7147V19.2787H77.7493V22.1576C77.9499 21.7989 78.2437 21.5012 78.5998 21.2959C78.9653 21.0813 79.3823 20.9699 79.8062 20.9737C80.1172 20.9681 80.4261 21.0269 80.7133 21.1464C81.0006 21.2659 81.26 21.4436 81.4753 21.6682C81.9167 22.1326 82.162 22.7493 82.1603 23.39C82.1585 24.0308 81.9098 24.6461 81.4658 25.1081C81.2496 25.3348 80.9889 25.5143 80.7001 25.6355C80.4112 25.7566 80.1004 25.8168 79.7872 25.8121C79.3668 25.8175 78.9526 25.711 78.5869 25.5036C78.2331 25.3033 77.9417 25.0089 77.745 24.6531L77.6804 25.7199L77.3813 25.7147ZM78.2922 21.9017C77.9139 22.3038 77.7032 22.8352 77.7032 23.3873C77.7032 23.9394 77.9139 24.4707 78.2922 24.8729C78.683 25.2534 79.2069 25.4663 79.7523 25.4663C80.2978 25.4663 80.8217 25.2534 81.2125 24.8729C81.588 24.4693 81.7967 23.9385 81.7967 23.3873C81.7967 22.8361 81.588 22.3053 81.2125 21.9017C80.8217 21.5212 80.2978 21.3083 79.7523 21.3083C79.2069 21.3083 78.683 21.5212 78.2922 21.9017Z" fill="#D9BB7E"/>
<path d="M87.9235 23.2874V23.3236H83.6374V23.3883C83.6294 23.6628 83.6774 23.9361 83.7784 24.1915C83.8795 24.4469 84.0315 24.6791 84.2251 24.8738C84.4152 25.0683 84.6435 25.2215 84.8956 25.3236C85.1477 25.4258 85.4181 25.4748 85.69 25.4675C85.9181 25.4695 86.1449 25.4337 86.3613 25.3615C86.5435 25.3039 86.7156 25.2181 86.8714 25.1073C86.9934 25.0177 87.1086 24.9192 87.2161 24.8126C87.2968 24.7355 87.3677 24.6486 87.4272 24.5541L87.4944 24.455L87.7615 24.611L87.6874 24.7411C87.6176 24.8441 87.5389 24.9406 87.4522 25.0298C87.33 25.1646 87.1943 25.2864 87.0472 25.3934C86.867 25.5158 86.6703 25.6119 86.4629 25.6787C86.1297 25.7925 85.7757 25.8323 85.4255 25.7952C85.0753 25.7581 84.7374 25.645 84.4354 25.4638C84.1334 25.2826 83.8747 25.0377 83.6772 24.7462C83.4796 24.4546 83.3482 24.1235 83.2919 23.7758C83.2356 23.4282 83.2558 23.0725 83.3512 22.7335C83.4466 22.3945 83.6149 22.0804 83.8443 21.8132C84.0736 21.546 84.3585 21.332 84.6791 21.1863C84.9997 21.0406 85.3482 20.9665 85.7004 20.9695C85.9944 20.9667 86.2857 21.0254 86.5558 21.1417C86.8258 21.2581 87.0686 21.4295 87.2687 21.645C87.4827 21.8608 87.6511 22.1174 87.7641 22.3995C87.877 22.6816 87.9321 22.9836 87.9261 23.2874M85.6909 21.3055C85.2052 21.2974 84.733 21.4658 84.3621 21.7795C83.9898 22.0874 83.7429 22.5207 83.6676 22.9979H87.5401C87.4816 22.5332 87.258 22.1051 86.9102 21.7915C86.5813 21.4792 86.1444 21.3063 85.6909 21.309" fill="#D9BB7E"/>
<path d="M89.7603 23.5897V25.7147H89.3923V21.0615H89.7146L89.7603 22.1817C89.9231 21.7932 90.2049 21.4663 90.5652 21.2481C90.9255 21.03 91.3458 20.9317 91.7655 20.9675L91.756 21.326H91.7103C91.4445 21.311 91.1787 21.3537 90.931 21.4513C90.6833 21.5489 90.4597 21.699 90.2756 21.8913C89.897 22.3726 89.7125 22.9782 89.7586 23.5888" fill="#D9BB7E"/>
</g>
<mask id="mask16_69_526" style="mask-type:luminance" maskUnits="userSpaceOnUse" x="133" y="4" width="7" height="9">
<path d="M137.008 7.18658C136.941 7.13828 136.885 7.07683 136.843 7.006C136.8 6.93518 136.773 6.85649 136.763 6.77479C136.752 6.69308 136.759 6.61009 136.782 6.53093C136.804 6.45178 136.843 6.37813 136.895 6.31453C137.001 6.18167 137.153 6.09448 137.321 6.07105C137.489 6.04763 137.66 6.08977 137.798 6.18873C137.864 6.23709 137.92 6.29859 137.962 6.36945C138.004 6.4403 138.031 6.51901 138.042 6.60071C138.052 6.68241 138.046 6.76538 138.023 6.8445C138 6.92363 137.961 6.99723 137.909 7.06077C137.847 7.13853 137.768 7.20137 137.679 7.24463C137.589 7.28789 137.491 7.31046 137.392 7.31066C137.255 7.31123 137.121 7.26773 137.01 7.18658M137.861 4.19647C137.548 4.28888 137.263 4.457 137.031 4.68592C136.7 4.98837 136.408 5.33013 136.16 5.70359C135.727 6.33956 135.374 7.02666 135.109 7.74927C135.098 7.78345 135.079 7.81405 135.052 7.83774C135.025 7.86144 134.992 7.87733 134.957 7.88369C134.823 7.91558 134.691 7.95349 134.558 7.98796C134.463 8.00861 134.375 8.0545 134.304 8.12078C134.233 8.18706 134.182 8.27127 134.154 8.36452C133.912 9.11535 133.668 9.86618 133.423 10.617C133.401 10.6842 133.386 10.7523 133.368 10.8195L133.402 10.8833C133.433 10.8968 133.467 10.9032 133.5 10.9022C133.534 10.9011 133.567 10.8926 133.597 10.8772C133.99 10.7428 134.382 10.6058 134.775 10.4731C134.856 10.4481 134.931 10.4066 134.995 10.3513C135.059 10.296 135.111 10.228 135.147 10.1517C135.194 10.056 135.218 10.0423 135.319 10.0716L137.2 10.6118C137.301 10.6411 137.313 10.6644 137.294 10.7635C137.277 10.8373 137.276 10.914 137.29 10.9883C137.305 11.0627 137.336 11.133 137.381 11.1944C137.639 11.5313 137.898 11.8656 138.156 12.2017C138.174 12.2281 138.196 12.2504 138.223 12.2672C138.25 12.284 138.28 12.2949 138.311 12.2991L138.351 12.2784C138.375 12.2415 138.395 12.2026 138.412 12.162C138.672 11.3676 138.93 10.5728 139.188 9.77772C139.215 9.69928 139.22 9.61491 139.203 9.53368C139.186 9.45246 139.147 9.37744 139.09 9.31671C139.004 9.2202 138.924 9.12024 138.832 9.03234C138.782 8.98817 138.747 8.92989 138.732 8.86534C138.717 8.80079 138.721 8.73307 138.746 8.67129C138.91 8.08813 139.015 7.49 139.06 6.88584C139.114 6.3416 139.089 5.79239 138.984 5.2555C138.934 4.9789 138.825 4.71623 138.665 4.48514C138.597 4.3892 138.506 4.31102 138.401 4.25707C138.296 4.20312 138.18 4.17496 138.062 4.17493C137.995 4.1752 137.928 4.18359 137.862 4.19992" fill="white"/>
</mask>
<g mask="url(#mask16_69_526)">
<path d="M134.63 1.75413L130.023 10.5444L137.974 14.7115L142.581 5.92115L134.63 1.75413Z" fill="#D9BB7E"/>
</g>
<mask id="mask17_69_526" style="mask-type:luminance" maskUnits="userSpaceOnUse" x="129" y="13" width="3" height="2">
<path d="M130.052 13.1226C129.892 13.1972 129.766 13.3281 129.697 13.4902C129.628 13.6522 129.622 13.8341 129.679 14.0007C129.735 14.1674 129.852 14.3071 130.006 14.3931C130.159 14.4791 130.339 14.5054 130.511 14.4667C130.683 14.4281 130.835 14.3274 130.937 14.1839C131.039 14.0404 131.084 13.8642 131.064 13.6892C131.044 13.5142 130.961 13.3527 130.829 13.2358C130.697 13.1188 130.527 13.0546 130.351 13.0554C130.248 13.0553 130.145 13.0783 130.052 13.1226Z" fill="white"/>
</mask>
<g mask="url(#mask17_69_526)">
<path d="M131.162 12.9937L129.49 13.0581L129.551 14.639L131.223 14.5746L131.162 12.9937Z" fill="#D9BB7E"/>
</g>
<mask id="mask18_69_526" style="mask-type:luminance" maskUnits="userSpaceOnUse" x="142" y="6" width="1" height="2">
<path d="M142.491 6.91554C142.454 6.93262 142.426 6.9625 142.41 6.99945C142.394 7.0364 142.393 7.07782 142.406 7.11576C142.419 7.15371 142.446 7.18551 142.481 7.20507C142.516 7.22463 142.557 7.23058 142.596 7.22178C142.635 7.21297 142.67 7.19003 142.693 7.15735C142.716 7.12467 142.726 7.08455 142.722 7.04469C142.717 7.00482 142.698 6.96801 142.668 6.94132C142.639 6.91462 142.6 6.89992 142.56 6.90003C142.536 6.89994 142.512 6.90525 142.491 6.91554Z" fill="white"/>
</mask>
<g mask="url(#mask18_69_526)">
<path d="M142.746 6.88611L142.365 6.901L142.379 7.26178L142.76 7.24689L142.746 6.88611Z" fill="#D9BB7E"/>
</g>
<mask id="mask19_69_526" style="mask-type:luminance" maskUnits="userSpaceOnUse" x="126" y="7" width="2" height="2">
<path d="M126.727 7.54563C126.649 7.58602 126.59 7.65335 126.559 7.73489C126.527 7.81644 126.527 7.90654 126.558 7.98815C126.589 8.06976 126.649 8.13722 126.726 8.17777C126.803 8.21831 126.893 8.22913 126.978 8.20818C127.062 8.18723 127.136 8.13595 127.186 8.06406C127.235 7.99217 127.257 7.90464 127.246 7.81804C127.235 7.73144 127.193 7.65178 127.128 7.59411C127.062 7.53645 126.978 7.50479 126.891 7.50513C126.833 7.50486 126.777 7.51878 126.727 7.54563Z" fill="white"/>
</mask>
<g mask="url(#mask19_69_526)">
<path d="M127.292 7.4741L126.459 7.50623L126.489 8.29238L127.323 8.26025L127.292 7.4741Z" fill="#D9BB7E"/>
</g>
<mask id="mask20_69_526" style="mask-type:luminance" maskUnits="userSpaceOnUse" x="133" y="2" width="2" height="2">
<path d="M133.626 2.69146C133.546 2.72911 133.484 2.7947 133.45 2.87566C133.416 2.95662 133.413 3.04727 133.441 3.13026C133.47 3.21325 133.528 3.28274 133.605 3.32545C133.682 3.36815 133.772 3.38106 133.857 3.3617C133.943 3.34235 134.018 3.29209 134.069 3.22055C134.12 3.149 134.143 3.0612 134.133 2.97394C134.123 2.88668 134.082 2.8061 134.016 2.74763C133.951 2.68915 133.866 2.65688 133.778 2.65699C133.725 2.65664 133.673 2.66844 133.626 2.69146Z" fill="white"/>
</mask>
<g mask="url(#mask20_69_526)">
<path d="M134.181 2.62599L133.348 2.65808L133.378 3.44337L134.211 3.41128L134.181 2.62599Z" fill="#D9BB7E"/>
</g>
<mask id="mask21_69_526" style="mask-type:luminance" maskUnits="userSpaceOnUse" x="137" y="15" width="2" height="1">
<path d="M137.717 15.2978C137.638 15.3354 137.575 15.4008 137.542 15.4816C137.508 15.5623 137.505 15.6528 137.533 15.7355C137.562 15.8183 137.62 15.8876 137.697 15.9302C137.773 15.9728 137.863 15.9856 137.948 15.9663C138.034 15.947 138.109 15.8969 138.16 15.8255C138.211 15.7542 138.233 15.6666 138.223 15.5796C138.214 15.4926 138.172 15.4122 138.107 15.3538C138.042 15.2955 137.957 15.2632 137.87 15.2633C137.817 15.263 137.765 15.2748 137.717 15.2978Z" fill="white"/>
</mask>
<g mask="url(#mask21_69_526)">
<path d="M138.269 15.2313L137.438 15.2638L137.468 16.0491L138.3 16.0166L138.269 15.2313Z" fill="#D9BB7E"/>
</g>
<mask id="mask22_69_526" style="mask-type:luminance" maskUnits="userSpaceOnUse" x="142" y="13" width="2" height="2">
<path d="M142.764 13.8301C142.685 13.8682 142.623 13.9339 142.59 14.0148C142.557 14.0957 142.554 14.1861 142.583 14.2687C142.612 14.3512 142.671 14.4202 142.747 14.4624C142.824 14.5047 142.913 14.5171 142.999 14.4975C143.084 14.4778 143.159 14.4274 143.21 14.3559C143.26 14.2844 143.282 14.1968 143.272 14.1099C143.262 14.0229 143.221 13.9427 143.155 13.8846C143.09 13.8265 143.005 13.7945 142.918 13.7948C142.864 13.7946 142.812 13.8067 142.764 13.8301Z" fill="white"/>
</mask>
<g mask="url(#mask22_69_526)">
<path d="M143.322 13.7634L142.489 13.7959L142.52 14.5812L143.352 14.5487L143.322 13.7634Z" fill="#D9BB7E"/>
</g>
<mask id="mask23_69_526" style="mask-type:luminance" maskUnits="userSpaceOnUse" x="92" y="11" width="45" height="18">
<path d="M135.088 12.2951L135.226 13.1646C135.228 13.176 135.226 13.1878 135.221 13.1982C134.45 14.7146 133.555 16.1641 132.544 17.5317C131.932 18.3553 131.271 19.1404 130.562 19.8824C129.851 20.6156 129.095 21.3035 128.298 21.9419C125.059 24.442 121.231 26.0685 117.183 26.6657C115.163 26.9956 113.118 27.1427 111.072 27.1052C109.018 27.0771 106.967 26.9145 104.934 26.6183C102.893 26.3235 100.868 25.9248 98.8679 25.424C96.8563 24.9308 94.8717 24.3334 92.9221 23.6343C94.8062 24.5154 96.7505 25.2615 98.7403 25.8669C100.733 26.4827 102.762 26.9745 104.815 27.3396C106.875 27.7103 108.96 27.9283 111.051 27.9919C111.339 27.9982 111.626 28.0017 111.913 28.0022H112.048C113.818 28.0066 115.585 27.8682 117.332 27.5886C119.416 27.2511 121.452 26.6596 123.393 25.8273C125.334 24.9871 127.142 23.8677 128.759 22.5046C129.56 21.8207 130.312 21.0825 131.011 20.2952C131.698 19.5033 132.333 18.6686 132.914 17.7962C133.852 16.3518 134.646 14.819 135.286 13.2197C135.291 13.2081 135.298 13.1973 135.306 13.1878L135.894 12.5269L136.567 11.7738L134.93 11.3085L135.088 12.2951Z" fill="white"/>
</mask>
<g mask="url(#mask23_69_526)">
<path d="M136.568 11.3068H92.9243V28.0022H136.568V11.3068Z" fill="#D9BB7E"/>
</g>
</svg>
