<svg width="72" height="72" viewBox="0 0 72 72" fill="none" xmlns="http://www.w3.org/2000/svg">
<mask id="mask0_69_694" style="mask-type:luminance" maskUnits="userSpaceOnUse" x="0" y="0" width="72" height="72">
<path d="M71.6932 0.222656H0.171875V71.5067H71.6932V0.222656Z" fill="white"/>
</mask>
<g mask="url(#mask0_69_694)">
<path d="M35.91 0.22229H55.0542C56.3031 0.22229 56.6582 0.58602 56.6582 1.85205C56.6582 8.46059 56.6582 15.0691 56.6582 21.6777C56.6582 22.8446 56.2929 23.2114 55.1119 23.2114C42.3252 23.2114 29.5387 23.2114 16.7525 23.2114C15.5427 23.2114 15.186 22.8454 15.1852 21.6262C15.1852 15.0176 15.1852 8.40907 15.1852 1.80053C15.1836 0.601631 15.5661 0.22229 16.7658 0.22229H35.91ZM37.2119 2.51551L37.1885 2.64351C37.3126 2.70361 37.4351 2.76762 37.5616 2.82226C38.3396 3.1122 39.023 3.61005 39.5376 4.26158C40.0522 4.91311 40.3782 5.69334 40.48 6.51731C40.568 7.5432 40.5821 8.57409 40.5222 9.60199C40.4855 10.5142 40.1758 11.3944 39.633 12.1286C39.0902 12.8627 38.3395 13.4169 37.4781 13.7193C37.322 13.7693 37.1378 13.7537 37.1097 14.0214C38.2204 14.0214 39.3217 14.0214 40.423 14.0214C40.897 14.0049 41.3693 14.0866 41.8102 14.2613C42.251 14.436 42.6511 14.7 42.9851 15.0366C43.3192 15.3732 43.5801 15.7753 43.7514 16.2175C43.9227 16.6597 44.0008 17.1326 43.9807 17.6064C43.9807 18.5165 44.0065 19.4266 43.9698 20.3383C43.9503 20.8245 44.1259 20.9346 44.5849 20.9315C47.6071 20.9127 50.6293 20.9081 53.6516 20.9369C54.2268 20.9424 54.3697 20.7722 54.3673 20.2126C54.3465 14.5407 54.3465 8.86699 54.3673 3.19145C54.3673 2.656 54.2338 2.50302 53.6906 2.5077C50.9088 2.53424 48.1262 2.51863 45.3435 2.51785H37.2119M34.6588 14.0229C33.8048 13.7322 33.0467 13.2132 32.4668 12.5222C31.8868 11.8312 31.5071 10.9946 31.3688 10.1031C31.2681 9.10223 31.2514 8.09467 31.3189 7.09101C31.3192 6.41945 31.4692 5.75641 31.7578 5.15006C32.0465 4.54371 32.4666 4.00928 32.9877 3.58562C33.5616 3.16156 34.1922 2.82 34.8609 2.57092C34.6065 2.53736 34.523 2.51707 34.4394 2.51707C28.9757 2.51707 23.5041 2.52331 18.0365 2.50458C17.4956 2.50458 17.4823 2.76137 17.4831 3.16335C17.4925 5.84371 17.4878 8.52485 17.4878 11.2029C17.4878 14.2423 17.4971 17.2825 17.4784 20.3219C17.4784 20.7832 17.5916 20.9323 18.0747 20.9284C21.1199 20.907 24.1653 20.907 27.2109 20.9284C27.7026 20.9284 27.8892 20.8081 27.8689 20.2938C27.833 19.3618 27.8525 18.4275 27.8603 17.494C27.856 17.0327 27.9445 16.5753 28.1204 16.1489C28.2963 15.7225 28.5561 15.3357 28.8844 15.0117C29.2127 14.6876 29.6027 14.4328 30.0314 14.2625C30.46 14.0921 30.9186 14.0096 31.3797 14.0198C32.4725 14.0159 33.5653 14.0198 34.6619 14.0198M35.9326 16.3162C34.4496 16.3162 32.9611 16.3068 31.4758 16.3162C31.3018 16.2968 31.1258 16.3161 30.9602 16.3729C30.7947 16.4296 30.6437 16.5223 30.5183 16.6444C30.3928 16.7664 30.296 16.9147 30.2347 17.0786C30.1734 17.2425 30.1491 17.4179 30.1637 17.5923C30.1465 18.5251 30.1871 19.4586 30.1488 20.3898C30.1285 20.8729 30.3409 20.9252 30.7421 20.9315C31.1729 20.9377 31.3524 20.8128 31.3204 20.364C31.2884 19.9152 31.3142 19.4555 31.3126 19.0012C31.3126 18.8006 31.3126 18.6109 31.5975 18.6195C32.2309 18.532 32.8752 18.5694 33.4942 18.7296C33.8478 18.9068 33.5723 19.7006 33.6144 20.2126C33.6222 20.2839 33.6222 20.3559 33.6144 20.4272C33.566 20.798 33.7112 20.933 34.096 20.9205C34.8859 20.8948 35.6774 20.9143 36.4681 20.9151C38.1969 20.9151 38.197 20.9151 38.2305 19.1768C38.234 19.129 38.234 19.081 38.2305 19.0332C38.193 18.7319 38.3086 18.6336 38.627 18.607C40.5105 18.4509 40.5097 18.4423 40.5284 20.2626C40.5322 20.3104 40.5322 20.3584 40.5284 20.4062C40.4644 20.8277 40.6681 20.9346 41.06 20.9237C41.4315 20.9127 41.707 20.9135 41.6891 20.407C41.6571 19.5234 41.6891 18.6375 41.6813 17.7531C41.675 16.7384 41.2559 16.3154 40.2466 16.3115C38.8089 16.306 37.3711 16.3115 35.9334 16.3115M33.6175 8.28367C33.6175 8.68955 33.6004 9.0962 33.6175 9.50052C33.6415 10.0924 33.8929 10.6523 34.3192 11.0635C34.7456 11.4748 35.3141 11.7058 35.9065 11.7084C36.4989 11.711 37.0695 11.4851 37.4995 11.0776C37.9294 10.6701 38.1857 10.1125 38.2149 9.52082C38.2516 8.6872 38.2508 7.84969 38.2149 7.0153C38.2081 6.40461 37.9589 5.82166 37.5223 5.39467C37.0856 4.96768 36.4972 4.73164 35.8866 4.73847C35.2759 4.7453 34.6929 4.99445 34.2659 5.4311C33.839 5.86774 33.6029 6.45613 33.6097 7.06681C33.5949 7.47191 33.6097 7.87857 33.6097 8.28367" fill="#D9BB7E"/>
<path d="M16.8427 57.7744C17.0998 57.9658 17.402 58.0879 17.72 58.1288C19.3225 58.6564 20.7185 59.6748 21.7102 61.0398C22.7018 62.4048 23.2389 64.0471 23.2454 65.7343C23.254 67.1955 23.2501 68.6559 23.2454 70.117C23.2454 71.0927 22.8333 71.504 21.8404 71.504C15.0758 71.5077 8.30905 71.5077 1.54024 71.504C0.646529 71.504 0.19694 71.0747 0.217234 70.1904C0.262505 68.2547 0.0135143 66.3049 0.35617 64.3855C0.941572 61.1073 2.96004 59.0482 6.07438 58.0289C6.58016 57.8634 6.65666 57.8048 6.31556 57.3701C5.28886 56.0897 4.75596 54.4832 4.81381 52.843C4.85206 51.3685 4.70454 49.8886 5.23452 48.447C5.7719 47.0265 6.75519 45.8184 8.037 45.0037C9.31882 44.1891 10.8301 43.8118 12.3444 43.9285C13.848 44.0523 15.2673 44.6738 16.378 45.6947C17.4887 46.7156 18.2273 48.0777 18.4771 49.5655C18.7893 51.8134 18.9454 54.0926 17.8831 56.2422C17.5879 56.7873 17.2391 57.3017 16.8419 57.7775M11.7239 69.2108C13.043 69.2108 14.3629 69.1827 15.6804 69.2241C16.2409 69.242 16.3767 69.0493 16.3462 68.5286C16.3033 67.7887 16.3314 67.0456 16.3322 66.3033C16.3322 64.4886 16.3322 64.4979 18.1906 64.6025C18.5286 64.6213 18.6488 64.7149 18.641 65.0576C18.6215 65.8709 18.6348 66.685 18.6355 67.4983C18.6355 69.3365 18.6355 69.3224 20.4784 69.2202C20.8733 69.1983 20.9553 69.0485 20.9467 68.7004C20.9311 67.6474 20.967 66.5929 20.935 65.5415C20.877 64.0917 20.2734 62.7174 19.2449 61.6939C18.2165 60.6704 16.8393 60.0734 15.3893 60.0223C12.9439 59.9794 10.4953 59.9529 8.05226 60.0333C7.07602 60.0471 6.12075 60.3185 5.28315 60.8202C4.44555 61.3219 3.75534 62.0359 3.2824 62.89C2.41679 64.3247 2.4925 65.9037 2.50186 67.4819C2.51279 69.324 2.50186 69.3123 4.3291 69.221C4.70532 69.2022 4.82942 69.0867 4.81928 68.7167C4.7982 67.9034 4.81225 67.0893 4.81225 66.276C4.81225 64.5721 4.81225 64.5885 6.55909 64.601C6.99853 64.601 7.13513 64.7173 7.12342 65.1637C7.0922 66.2877 7.13903 67.414 7.10156 68.538C7.08439 69.0555 7.20225 69.2467 7.7658 69.2272C9.08334 69.1819 10.4032 69.2124 11.7223 69.2116M7.13122 51.9407H7.11873C7.11873 52.3481 7.11873 52.7548 7.11873 53.1622C7.12716 54.2999 7.55767 55.394 8.32682 56.2324C9.09597 57.0708 10.149 57.5938 11.2818 57.7C12.4145 57.8063 13.5464 57.4882 14.458 56.8074C15.3697 56.1266 15.9961 55.1317 16.2159 54.0153C16.3588 52.9005 16.3959 51.7746 16.3267 50.6528C16.3225 50.0779 16.1956 49.5106 15.9544 48.9887C15.5511 48.0493 14.8468 47.2709 13.9523 46.776C13.0578 46.2811 12.0241 46.0978 11.0141 46.2552C10.004 46.4125 9.07497 46.9014 8.37339 47.6449C7.67181 48.3884 7.23755 49.3442 7.13903 50.3616C7.08907 50.883 7.13122 51.4138 7.13122 51.9407Z" fill="#D9BB7E"/>
<path d="M35.8921 62.3063C32.5561 62.3063 29.2201 62.3063 25.884 62.3063C24.8061 62.3063 24.3846 61.909 24.4073 60.8498C24.4486 58.9851 24.2153 57.1032 24.5345 55.258C24.7576 53.7559 25.4114 52.3507 26.4167 51.2125C27.422 50.0743 28.7358 49.252 30.1989 48.8451C30.7085 48.6734 30.8405 48.6157 30.472 48.1317C29.4591 46.8401 28.9395 45.2299 29.0062 43.5898C29.0538 42.2332 28.8875 40.8657 29.3184 39.5349C29.7976 38.0811 30.7382 36.8234 31.9974 35.9531C33.2566 35.0827 34.7655 34.6472 36.2948 34.7127C37.7423 34.7709 39.1318 35.2975 40.2542 36.2133C41.3766 37.1291 42.1714 38.3846 42.5188 39.7909C43.1511 42.7398 43.3142 45.7425 41.2091 48.3292C40.854 48.7655 41.2871 48.7273 41.4862 48.7882C43.1818 49.2673 44.6789 50.278 45.7573 51.6715C46.8175 53.015 47.4051 54.6707 47.4292 56.382C47.4612 57.89 47.4393 59.3995 47.4354 60.9091C47.4354 61.891 47.0272 62.3055 46.0414 62.307C42.6591 62.3128 39.2749 62.3128 35.889 62.307M35.8804 60.0138C37.1995 60.0138 38.5194 59.9826 39.8369 60.0279C40.4301 60.0482 40.5706 59.8382 40.5394 59.2934C40.4957 58.5776 40.5277 57.858 40.5261 57.1399C40.5261 55.3251 40.5222 55.3376 42.3526 55.4024C42.7311 55.4157 42.8474 55.5242 42.8365 55.8965C42.8123 56.7098 42.8295 57.5239 42.8295 58.338C42.8295 60.063 42.8295 60.0497 44.5646 60.0224C44.9877 60.0154 45.1602 59.9178 45.1469 59.462C45.1157 58.4098 45.1594 57.3545 45.1313 56.3024C45.0647 54.8652 44.4621 53.5052 43.4421 52.4906C42.4221 51.476 41.059 50.8804 39.6215 50.8215C37.1519 50.777 34.6784 50.7481 32.2111 50.8332C31.2468 50.852 30.3041 51.1227 29.4768 51.6185C28.6495 52.1143 27.9663 52.8179 27.4951 53.6595C26.6037 55.1128 26.6896 56.7168 26.6981 58.3177C26.7083 60.1598 26.6981 60.1504 28.5605 60.0201C28.8993 59.9967 29.021 59.8936 29.014 59.5517C28.9968 58.7384 29.0085 57.9243 29.0078 57.1102C29.0078 55.3447 29.0078 55.3579 30.7882 55.3985C31.1886 55.4079 31.3267 55.5093 31.3174 55.923C31.2916 57.0478 31.3345 58.1741 31.2971 59.2973C31.2791 59.8382 31.3962 60.0474 31.9995 60.0232C33.2929 59.9709 34.5894 60.0068 35.8843 60.0091M40.5308 42.7819C40.5308 42.3753 40.5308 41.9678 40.5308 41.5604C40.5213 40.428 40.0945 39.339 39.332 38.5018C38.5695 37.6646 37.525 37.138 36.3985 37.023C35.272 36.908 34.1426 37.2125 33.2267 37.8784C32.3107 38.5442 31.6726 39.5245 31.4344 40.6316C31.2757 41.7456 31.2378 42.8735 31.3213 43.9957C31.337 44.9971 31.6799 45.966 32.2976 46.7544C32.9153 47.5429 33.774 48.1076 34.7426 48.3626C35.7112 48.6176 36.7366 48.5487 37.6624 48.1665C38.5883 47.7844 39.3637 47.1099 39.8705 46.2459C40.433 45.1836 40.6626 43.9768 40.5308 42.7819Z" fill="#D9BB7E"/>
<path d="M60.0912 71.5058C56.7572 71.5058 53.4233 71.5058 50.0894 71.5058C48.988 71.5058 48.5712 71.1015 48.6001 69.9846C48.6485 68.1214 48.405 66.2458 48.7383 64.3967C48.9685 62.8967 49.6308 61.4963 50.6441 60.3666C51.6573 59.2368 52.9778 58.4268 54.444 58.0353C55.0591 57.8355 54.9748 57.734 54.6625 57.3274C53.6845 56.1015 53.1682 54.571 53.2037 53.0032C53.2381 51.4593 53.0617 49.9053 53.6291 48.3981C54.1792 46.983 55.1717 45.7834 56.4588 44.9781C57.7458 44.1727 59.2586 43.8047 60.7718 43.9287C62.2737 44.063 63.688 44.694 64.7913 45.7219C65.8945 46.7499 66.6238 48.1161 66.8639 49.6048C67.1761 51.8293 67.3213 54.0835 66.2761 56.2081C66.0544 56.6866 65.7606 57.1283 65.4051 57.5178C65.149 57.7863 65.1935 57.8784 65.5393 57.9784C67.1155 58.3413 68.5396 59.186 69.6138 60.3952C70.6881 61.6044 71.3591 63.1181 71.5338 64.7261C71.7138 66.6565 71.7371 68.5983 71.6033 70.5325C71.5947 71.1616 71.0351 71.5019 70.2342 71.5035C66.8519 71.5082 63.4696 71.5082 60.0873 71.5035M60.0607 69.2087C61.4275 69.2087 62.7926 69.1931 64.1617 69.2181C64.6027 69.2259 64.7432 69.0916 64.7322 68.6483C64.6762 67.4765 64.6788 66.3027 64.74 65.1312C64.8267 63.9955 65.7454 64.8252 66.2496 64.6356C66.5618 64.5169 67.0832 64.4365 67.0301 65.1515C66.9755 65.9375 67.0177 66.7305 67.0177 67.5204C67.0177 69.2922 67.0176 69.2782 68.8129 69.2181C69.2273 69.204 69.3429 69.0713 69.3343 68.6717C69.3116 67.6188 69.3522 66.5643 69.3202 65.5121C69.2566 64.0625 68.6477 62.6905 67.6154 61.6708C66.5831 60.6511 65.2037 60.0591 63.7534 60.0132C61.3338 59.9781 58.9071 59.9508 56.4874 60.0234C55.499 60.0318 54.5306 60.3029 53.6815 60.8089C52.8323 61.3148 52.133 62.0375 51.6551 62.9028C50.7911 64.3389 50.8793 65.9203 50.8871 67.4962C50.8957 69.2782 50.8871 69.2594 52.6636 69.2134C53.1319 69.2017 53.2178 69.0214 53.2045 68.6147C53.1795 67.8498 53.1967 67.0833 53.1967 66.3168C53.1967 64.5489 53.1967 64.5692 54.9654 64.5879C55.4392 64.5926 55.5118 64.7651 55.5047 65.1749C55.4821 66.3231 55.5196 67.4736 55.4868 68.621C55.4727 69.1057 55.6429 69.2212 56.1003 69.2111C57.4186 69.1814 58.7385 69.2009 60.0576 69.2009M55.4696 51.9144H55.4977C55.4977 52.3452 55.4907 52.773 55.4977 53.2077C55.5356 54.3423 55.986 55.4242 56.7646 56.2505C57.5431 57.0767 58.5963 57.5906 59.7267 57.6958C60.8467 57.7806 61.9592 57.4539 62.8557 56.7772C63.7522 56.1004 64.3711 55.1199 64.5964 54.0195C64.7369 53.0005 64.7743 51.9699 64.7081 50.9434C64.7285 49.7859 64.3118 48.6632 63.5409 47.7994C62.7701 46.9356 61.7018 46.3943 60.5495 46.2835C59.3971 46.1726 58.2453 46.5004 57.3239 47.2014C56.4026 47.9024 55.7794 48.9251 55.5789 50.0653C55.5037 50.6821 55.4693 51.3032 55.4759 51.9245" fill="#D9BB7E"/>
<path d="M0.209018 16.3161C0.209018 12.9871 0.225409 9.65733 0.19731 6.32522C0.165148 5.98043 0.255048 5.63528 0.45133 5.34999C0.647611 5.0647 0.937816 4.85736 1.27133 4.76415C4.93673 3.31782 8.5951 1.83948 12.2574 0.378319C12.4515 0.263107 12.6745 0.205888 12.9001 0.213428C13.1256 0.220968 13.3443 0.292952 13.5303 0.420867C13.7163 0.548782 13.8617 0.727276 13.9494 0.93524C14.0371 1.1432 14.0635 1.37194 14.0253 1.59439C14.0326 8.37257 14.036 15.1507 14.0354 21.9289C14.0533 22.2055 13.9786 22.4802 13.8232 22.7097C13.6677 22.9392 13.4403 23.1105 13.1768 23.1965C9.42091 24.6931 5.66445 26.1867 1.90746 27.6776C0.921647 28.0678 0.216823 27.5457 0.214482 26.4474C0.207197 23.0703 0.207197 19.6932 0.214482 16.3161H0.209018ZM11.7274 3.11566C11.5635 3.16639 11.4519 3.19371 11.3465 3.23508C8.54905 4.345 5.75395 5.46429 2.9487 6.5586C2.5475 6.71471 2.50457 6.96448 2.50536 7.32665C2.51264 12.9985 2.5103 18.6704 2.49833 24.3423C2.49833 24.9582 2.68878 24.9223 3.13837 24.7396C5.74926 23.6781 8.35782 22.6119 10.9898 21.6034C11.2363 21.5433 11.4511 21.3924 11.5913 21.1809C11.7315 20.9694 11.7867 20.7128 11.7461 20.4623C11.7211 14.9322 11.7274 9.40444 11.7274 3.87668V3.11566Z" fill="#D9BB7E"/>
<path d="M71.634 16.3426C71.634 19.6729 71.634 23.0009 71.634 26.3265C71.634 27.6346 70.9503 28.0928 69.7186 27.6034C66.1235 26.1745 62.5304 24.7414 58.9394 23.3042C57.9583 22.914 57.8115 22.6845 57.8115 21.6479C57.8115 15.016 57.8115 8.38402 57.8115 1.75206C57.8115 0.433735 58.4828 -0.0619053 59.6942 0.418124C63.3572 1.86914 67.0078 3.35138 70.6701 4.80396C70.9789 4.90036 71.2448 5.10083 71.4224 5.37124C71.6 5.64165 71.6784 5.96526 71.6442 6.28698C71.6239 9.6386 71.6356 12.9902 71.6356 16.3426M69.333 15.8048H69.3369C69.3369 13.0043 69.326 10.2045 69.3478 7.40392C69.3819 7.20998 69.3413 7.01036 69.2343 6.84506C69.1274 6.67975 68.9619 6.56098 68.771 6.51255C66.1008 5.47912 63.433 4.4254 60.7877 3.3264C60.1695 3.06961 60.1024 3.21088 60.104 3.79472C60.1196 9.41927 60.1177 15.0438 60.0985 20.6684C60.0749 20.8632 60.1257 21.0597 60.2405 21.2188C60.3554 21.3779 60.5259 21.4879 60.7182 21.5269C63.4095 22.5783 66.0961 23.6438 68.7664 24.7474C69.2971 24.9668 69.3416 24.8403 69.3393 24.3572C69.3229 21.509 69.3315 18.6593 69.3315 15.8126" fill="#D9BB7E"/>
<path d="M52.0434 40.4591C50.149 40.4591 48.2539 40.4692 46.3595 40.4591C45.8918 40.4698 45.4267 40.3851 44.9927 40.2104C44.5586 40.0356 44.1647 39.7743 43.8349 39.4424C43.5051 39.1105 43.2462 38.715 43.0741 38.2799C42.902 37.8448 42.8203 37.3792 42.8339 36.9115C42.8302 35.4025 42.832 33.8935 42.8393 32.3844C42.8465 31.4784 43.2105 30.6117 43.8523 29.9722C44.4941 29.3327 45.3622 28.9719 46.2682 28.968C47.4453 28.9579 47.4453 28.9579 47.446 27.7925C47.446 27.4335 47.4351 27.0737 47.446 26.7154C47.4279 26.491 47.4775 26.2663 47.5883 26.0704C47.6991 25.8744 47.8661 25.7161 48.0677 25.616C48.2693 25.5158 48.4963 25.4784 48.7194 25.5085C48.9425 25.5387 49.1515 25.635 49.3193 25.785C50.6306 26.7076 51.9099 27.677 53.1814 28.6543C53.4602 28.8758 53.81 28.9884 54.1657 28.9711C55.3646 28.9563 56.5643 28.9602 57.7632 28.9711C58.225 28.9626 58.6838 29.0472 59.1121 29.22C59.5404 29.3929 59.9295 29.6503 60.256 29.977C60.5825 30.3037 60.8398 30.6929 61.0125 31.1213C61.1851 31.5497 61.2695 32.0085 61.2607 32.4703C61.2691 33.9793 61.2691 35.4884 61.2607 36.9974C61.2638 37.4534 61.1762 37.9054 61.0032 38.3272C60.8301 38.7491 60.5751 39.1324 60.2528 39.4549C59.9305 39.7774 59.5473 40.0328 59.1256 40.2061C58.7039 40.3794 58.2519 40.4672 57.796 40.4645C56.8367 40.4755 55.8774 40.4645 54.9181 40.4645H52.0403M49.8641 29.0812C49.744 29.3184 49.7029 29.5878 49.7471 29.85C49.7197 30.8866 49.349 31.255 48.2984 31.2652C47.6982 31.2691 47.0979 31.2581 46.4985 31.2652C46.3123 31.2425 46.1235 31.2629 45.9464 31.3247C45.7694 31.3865 45.6089 31.4882 45.4774 31.6218C45.3458 31.7554 45.2466 31.9174 45.1875 32.0954C45.1284 32.2733 45.1109 32.4625 45.1364 32.6483C45.1263 33.9416 45.1364 35.2357 45.1364 36.5291C45.1364 37.7928 45.4986 38.1682 46.7428 38.1682C50.3192 38.1682 53.8954 38.1682 57.4712 38.1682C58.5515 38.1682 58.9543 37.774 58.9613 36.7094C58.9681 35.3679 58.9681 34.0264 58.9613 32.6849C58.9566 31.6796 58.5351 31.2745 57.4986 31.2706C56.2021 31.2651 54.9056 31.2433 53.6107 31.2769C53.0825 31.2961 52.5653 31.1224 52.1558 30.7882C51.4065 30.2122 50.6408 29.6565 49.8665 29.0812" fill="#D9BB7E"/>
<path d="M19.8098 25.5205C21.7042 25.5205 23.5985 25.5158 25.4929 25.5205C25.9545 25.5094 26.4137 25.5916 26.8428 25.7623C27.2719 25.9329 27.6621 26.1884 27.9901 26.5135C28.3181 26.8385 28.577 27.2265 28.7515 27.654C28.9259 28.0816 29.0123 28.54 29.0053 29.0017C29.0123 30.5089 29.0092 32.0169 29.0053 33.5249C29.0094 33.9805 28.9234 34.4324 28.7521 34.8546C28.5808 35.2768 28.3277 35.6609 28.0073 35.9849C27.6869 36.3088 27.3056 36.5662 26.8853 36.7421C26.465 36.918 26.0141 37.0091 25.5585 37.01C24.3978 37.0311 24.3978 37.0311 24.3978 38.1941C24.3978 38.5289 24.3884 38.8645 24.3978 39.1994C24.4188 39.4275 24.3704 39.6566 24.259 39.8567C24.1476 40.0569 23.9783 40.2187 23.7734 40.321C23.5726 40.4327 23.3421 40.4795 23.1136 40.455C22.8852 40.4306 22.6699 40.336 22.4972 40.1844C21.2304 39.24 19.9589 38.301 18.7046 37.3409C18.4287 37.1144 18.0803 36.9949 17.7234 37.0045C16.5011 37.024 15.278 37.0193 14.0549 37.0045C13.5933 37.0094 13.1355 36.9215 12.7086 36.7459C12.2816 36.5703 11.8944 36.3107 11.5698 35.9824C11.2453 35.6541 10.9901 35.264 10.8193 34.8351C10.6486 34.4062 10.5659 33.9474 10.5761 33.4859C10.569 31.9779 10.5659 30.4707 10.5761 28.9627C10.5753 28.5073 10.665 28.0564 10.8399 27.636C11.0148 27.2156 11.2714 26.8341 11.5949 26.5137C11.9184 26.1933 12.3023 25.9403 12.7243 25.7694C13.1463 25.5985 13.5981 25.5131 14.0534 25.5182C15.9719 25.5119 17.8897 25.5182 19.8083 25.5182M22.0921 36.992C22.0921 36.5877 22.0921 36.3746 22.0921 36.1615C22.1023 35.107 22.505 34.7152 23.5837 34.7129C24.1355 34.7129 24.6874 34.7176 25.24 34.7129C26.2688 34.7066 26.6918 34.3023 26.6988 33.2915C26.7082 31.9261 26.7082 30.5609 26.6988 29.196C26.6918 28.2492 26.2414 27.8153 25.2681 27.8145C21.6204 27.8093 17.9727 27.8093 14.325 27.8145C13.3103 27.8145 12.8818 28.2469 12.8771 29.2522C12.8714 30.5932 12.8714 31.9344 12.8771 33.2759C12.8771 34.2906 13.2947 34.7105 14.3141 34.7168C15.5629 34.7246 16.8118 34.7597 18.0606 34.7019C18.7337 34.6736 19.3919 34.9053 19.8988 35.349C20.5677 35.879 21.264 36.3746 22.0968 36.9952" fill="#D9BB7E"/>
<path d="M48.6017 33.5666C49.7436 33.5666 49.8505 33.5846 49.7061 34.3753C49.6156 34.874 50.4188 35.8793 49.0544 35.8653C47.4449 35.8489 47.4449 35.8653 47.4434 34.5798C47.4434 33.5651 47.4434 33.5651 48.6017 33.5651" fill="#D9BB7E"/>
<path d="M53.2011 34.7565C53.2011 35.8625 53.2011 35.8625 51.7805 35.8586C50.8946 35.8586 50.8946 35.8586 50.8993 34.2842C50.8993 33.5599 50.8993 33.5513 52.4963 33.5716C53.308 33.5825 53.191 33.389 53.1988 34.7565" fill="#D9BB7E"/>
<path d="M55.5368 35.861C54.3512 35.861 54.3512 35.861 54.3543 34.6543C54.3543 33.5717 54.3543 33.5717 55.447 33.5709C56.6608 33.5709 56.6608 33.5709 56.6584 34.7464C56.6584 35.8634 56.6584 35.8634 55.5407 35.8618" fill="#D9BB7E"/>
<path d="M19.7598 32.4126C18.6398 32.4126 18.6398 32.4125 18.6405 30.9295C18.6405 30.1146 18.6405 30.1147 20.0697 30.1162C20.9447 30.1162 20.9447 30.1162 20.9423 31.3549C20.9423 32.4118 20.9423 32.4118 19.7598 32.4102" fill="#D9BB7E"/>
<path d="M24.3993 31.2123C24.3993 32.4174 24.3993 32.4174 23.0887 32.4159C22.0959 32.4159 22.0959 32.4159 22.0982 30.8767C22.0982 30.118 22.1029 30.1835 23.6593 30.0961C24.7794 30.036 24.2837 30.7986 24.3985 31.2092" fill="#D9BB7E"/>
<path d="M16.2993 32.4132C15.1824 32.4132 15.1824 32.4132 15.1855 30.8522C15.1855 30.1075 15.1855 30.1497 16.763 30.1005C18.0118 30.0591 17.4202 30.9521 17.4608 31.4274C17.5443 32.4047 17.4834 32.4093 16.2993 32.4062" fill="#D9BB7E"/>
</g>
</svg>
