<svg width="82" height="79" viewBox="0 0 82 79" fill="none" xmlns="http://www.w3.org/2000/svg">
<path d="M81.0922 77.938C80.8955 78.2124 80.6308 78.4309 80.3241 78.5721C80.0175 78.7134 79.6794 78.7725 79.343 78.7437C53.5292 78.7271 27.7155 78.7231 1.90178 78.7317C0.344681 78.7317 0 78.3818 0 76.8308C0 74.2175 0 71.6037 0 68.9893C0 67.7484 0.421373 67.3288 1.65792 67.3262C2.31626 67.3262 2.97374 67.3262 3.73203 67.3262C3.23163 66.4831 2.86534 65.5674 2.64629 64.6118C2.58368 64.223 2.54941 63.8302 2.54375 63.4365C2.54375 59.2135 2.54375 54.9912 2.54375 50.7694C2.56764 47.4199 3.79774 44.1911 6.00863 41.6748C8.21952 39.1585 11.2631 37.5231 14.5817 37.0684C16.3991 36.8245 18.2173 37.0037 20.0329 36.9176C20.3276 36.9038 20.7731 37.1718 20.9023 36.6668C20.9537 36.4626 20.9379 36.2472 20.8571 36.0527C20.7764 35.8582 20.6351 35.6949 20.4542 35.5871C18.3971 34.0276 16.9371 31.8097 16.3181 29.3036C16.282 28.9349 16.1156 28.5912 15.8489 28.3342C15.5821 28.0772 15.2324 27.9238 14.8626 27.9016C13.6792 27.703 12.6098 27.0768 11.8576 26.1418C11.1055 25.2068 10.7229 24.0281 10.7825 22.8296C10.7782 20.8761 10.7747 18.9235 10.7825 16.97C10.8572 12.8491 12.4178 8.89386 15.1771 5.83215C17.9363 2.77044 21.7085 0.808284 25.7994 0.306786C29.8904 -0.194713 34.0248 0.798191 37.4419 3.10277C40.859 5.40735 43.3287 8.86853 44.3966 12.8494C44.7698 14.1345 44.9658 15.4646 44.9791 16.8028C44.986 18.8353 44.986 20.8678 44.9791 22.9002C45.0056 24.193 44.5335 25.4463 43.6607 26.4002C42.7879 27.3542 41.5815 27.9356 40.2915 28.0239C40.21 28.0183 40.1283 28.0291 40.0511 28.0557C39.9738 28.0823 39.9028 28.1241 39.842 28.1787C39.7813 28.2333 39.7321 28.2995 39.6974 28.3734C39.6627 28.4473 39.6432 28.5274 39.64 28.609C39.0748 31.4309 37.4955 33.9479 35.2005 35.6845C35.0397 35.7968 34.9201 35.9587 34.8599 36.1454C34.7997 36.3321 34.8022 36.5334 34.8671 36.7185C34.9662 37.1037 35.3617 36.9081 35.6202 36.9158C37.8062 36.8372 39.995 36.9401 42.164 37.2235C42.9498 37.3777 43.7305 36.9038 44.5647 36.9081C50.5561 36.94 56.5475 36.9236 62.5389 36.9227C66.1288 36.9227 69.7192 36.9227 73.3102 36.9227C74.0043 36.8919 74.6972 37.0055 75.3452 37.2561C75.9932 37.5068 76.5822 37.8891 77.0749 38.379C77.5676 38.8688 77.9533 39.4556 78.2077 40.1021C78.4621 40.7486 78.5796 41.4409 78.5528 42.1352C78.5585 49.4993 78.5629 56.8634 78.5657 64.2275C78.6165 65.2777 78.3913 66.3229 77.9126 67.259C79.0173 67.5097 80.3253 66.8858 81.094 68.1207L81.0922 77.938ZM57.9788 67.3279H73.0982C75.0267 67.3279 76.028 66.3344 76.028 64.4093C76.028 57.0739 76.028 49.7383 76.028 42.4023C76.028 40.4313 75.0388 39.4472 73.0603 39.4501H44.7965C42.762 39.4501 41.8132 40.4075 41.8132 42.4661C41.8132 50.5144 41.8236 58.5627 41.7995 66.6101C41.7995 67.2262 41.9649 67.3426 42.5431 67.34C47.6883 67.3167 52.8344 67.327 57.9797 67.327M16.1069 67.327C18.5352 67.327 20.9635 67.3089 23.3909 67.34C23.9519 67.3469 24.107 67.1892 24.0941 66.6334C24.0573 64.9979 24.0573 63.3606 24.0941 61.7217C24.1078 61.1357 23.9579 60.9642 23.353 60.9694C19.8958 61.0013 16.4378 60.9875 12.9807 60.9858C11.9854 60.9858 11.4296 60.5325 11.415 59.7199C11.4003 58.9073 11.957 58.4541 12.966 58.4532C17.0568 58.4532 21.1476 58.4532 25.2384 58.4532C27.5229 58.4239 29.7477 59.1826 31.5383 60.6015C31.8848 60.881 32.3214 61.0247 32.7662 61.0056C34.6663 60.9849 36.5672 60.9668 38.4664 61.0125C39.1213 61.028 39.3014 60.86 39.2988 60.1913C39.2712 54.2533 39.2902 48.3144 39.2747 42.3764C39.2456 41.5871 39.3928 40.8011 39.7055 40.0757C39.9399 39.5733 39.8494 39.438 39.3109 39.4475C38.0967 39.4682 36.88 39.5035 35.6702 39.432C34.9868 39.3915 34.7878 39.6302 34.6801 40.2635C34.3539 41.8475 33.4847 43.2677 32.2227 44.2789C30.9606 45.2901 29.385 45.8286 27.7681 45.8016C26.1511 45.7745 24.5944 45.1835 23.3669 44.1306C22.1395 43.0777 21.3183 41.6292 21.0454 40.0352C20.9781 39.725 20.9592 39.4208 20.4887 39.4432C18.6464 39.5294 16.7998 39.3364 14.9574 39.5845C12.2396 39.9444 9.74323 41.2737 7.92765 43.3279C6.11208 45.382 5.09951 48.0228 5.07629 50.7643C5.06164 54.9607 5.07026 59.1572 5.07629 63.3537C5.05298 63.8826 5.14011 64.4105 5.33213 64.9038C5.52416 65.3971 5.81685 65.8449 6.19157 66.2188C6.56628 66.5927 7.01479 66.8845 7.5085 67.0754C8.00221 67.2664 8.53029 67.3524 9.05908 67.3279C11.4081 67.3339 13.7571 67.3279 16.1061 67.3279M40.5319 76.1957C52.9599 76.1957 65.388 76.2 77.816 76.2086C78.3899 76.2086 78.5916 76.0966 78.5743 75.4779C78.5267 73.8435 78.5267 72.208 78.5743 70.5714C78.5916 69.9526 78.3839 69.8415 77.8117 69.8423C69.4997 69.8625 61.1881 69.8679 52.8766 69.8587C36.359 69.8587 19.841 69.8536 3.32272 69.8432C2.71953 69.8432 2.4998 69.9664 2.52134 70.6119C2.57046 72.088 2.53771 73.5666 2.53858 75.0444C2.53858 76.1897 2.53858 76.1914 3.645 76.1914H40.5319M42.3958 18.5555C42.6497 15.8235 42.1176 13.0757 40.8621 10.6359C39.6066 8.19615 37.6799 6.16602 35.3091 4.78468C30.1208 1.8075 24.8472 1.90573 19.8519 5.17589C15.1212 8.27027 13.1513 12.8847 13.3107 18.5323C13.8277 18.3599 14.2646 18.1876 14.7179 18.0825C16.2059 17.8766 17.7113 17.8249 19.2099 17.9282C21.693 17.9256 24.1505 17.426 26.4374 16.4587C28.7243 15.4914 30.7945 14.0761 32.5258 12.2961C33.5116 11.3052 34.1863 11.3319 35.0454 12.4444C36.3027 14.073 37.553 15.7068 38.8162 17.3311C39.0325 17.6094 39.1963 17.9618 39.6685 17.9282C40.6161 17.9078 41.5538 18.1253 42.3958 18.5607M37.3832 23.662C37.3832 22.3065 37.3781 21.1992 37.3832 20.092C37.4025 19.8044 37.3161 19.5197 37.1402 19.2914C36.0803 17.9455 35.0273 16.5943 33.9993 15.2242C33.7176 14.8494 33.534 14.858 33.1962 15.1579C31.9946 16.2277 30.6717 17.1532 29.2548 17.9153C26.1452 19.6085 22.653 20.4751 19.1126 20.4323C18.5301 20.4263 18.3207 20.5625 18.3586 21.1665C18.4103 21.9808 18.3655 22.8037 18.3758 23.618C18.2917 25.1168 18.3613 26.6203 18.5835 28.1049C19.0995 30.4796 20.5001 32.5687 22.5006 33.9482C24.5012 35.3276 26.9518 35.8939 29.3548 35.5319C31.1893 35.2165 32.8944 34.3798 34.2664 33.1217C35.6383 31.8636 36.6192 30.2372 37.092 28.4367C37.349 26.8575 37.4454 25.2563 37.3798 23.6577M23.4469 37.3501C23.4469 37.9775 23.4254 38.504 23.4469 39.027C23.478 39.6718 23.6498 40.3019 23.9504 40.8731C24.2509 41.4444 24.6729 41.9429 25.1866 42.3337C25.7004 42.7246 26.2934 42.9982 26.9242 43.1353C27.5549 43.2725 28.2081 43.27 28.8377 43.1279C31.1919 42.5953 32.581 40.5384 32.3138 37.7069C32.2699 37.2407 32.0183 37.4708 31.8287 37.5345C29.0991 38.4622 26.1298 38.3972 23.4435 37.351M29.6831 67.3305C30.581 67.3305 31.478 67.321 32.375 67.3348C32.7387 67.3408 32.8188 67.2176 32.7481 66.8617C32.4167 65.4987 31.7169 64.2531 30.7253 63.261C29.7337 62.2689 28.4884 61.5686 27.1255 61.2365C26.6214 61.1262 26.6085 61.2951 26.6085 61.6743C26.6137 63.3899 26.6214 65.1056 26.5939 66.8204C26.5861 67.2676 26.7662 67.3486 27.1514 67.3374C27.9959 67.3158 28.8403 67.3314 29.6848 67.3314M34.1536 63.5226C34.7385 64.6215 35.1413 65.8079 35.3462 67.0358C35.3875 67.3693 35.6684 67.327 35.9011 67.3288C36.849 67.3331 37.7969 67.3176 38.7447 67.3417C39.1497 67.352 39.3048 67.2323 39.291 66.8057C39.2609 65.8846 39.26 64.9617 39.291 64.0405C39.3048 63.6019 39.1187 63.5131 38.7309 63.5175C37.2574 63.5321 35.7848 63.5235 34.1553 63.5235M39.9141 22.9373C39.9141 23.6215 39.9408 24.3074 39.9046 24.9899C39.8787 25.481 40.0476 25.5801 40.4983 25.4621C41.0638 25.3201 41.5647 24.9911 41.9196 24.5285C42.2745 24.066 42.4627 23.497 42.4535 22.914C42.4389 22.3437 42.2313 21.7952 41.8646 21.3582C41.4978 20.9212 40.9937 20.6215 40.4345 20.5082C40.0562 20.4177 39.9011 20.4659 39.9123 20.8847C39.9313 21.5681 39.9175 22.2531 39.9175 22.9364M15.8476 23.0226C15.8476 22.3143 15.8312 21.6051 15.8536 20.8977C15.8665 20.484 15.6942 20.4091 15.3305 20.4849C14.7629 20.615 14.2554 20.9322 13.8896 21.3853C13.5237 21.8385 13.3208 22.4015 13.3133 22.9838C13.3277 23.5638 13.5338 24.1226 13.8993 24.573C14.2649 25.0234 14.7694 25.34 15.334 25.4733C15.714 25.5595 15.8665 25.4836 15.851 25.0726C15.8312 24.391 15.8458 23.7085 15.8433 23.0261" fill="#D9BB7E"/>
<path d="M65.2532 53.4096C65.2498 54.6601 64.8762 55.8816 64.1796 56.9201C63.483 57.9586 62.4945 58.7676 61.3387 59.2451C60.183 59.7226 58.9118 59.8473 57.6853 59.6033C56.4588 59.3594 55.332 58.7578 54.4469 57.8744C53.5619 56.991 52.9581 55.8654 52.7119 54.6394C52.4656 53.4134 52.5879 52.1419 53.0632 50.9853C53.5385 49.8286 54.3456 48.8386 55.3828 48.14C56.42 47.4414 57.6407 47.0655 58.8912 47.0597C59.7274 47.0536 60.5565 47.2135 61.3303 47.5303C62.1042 47.8471 62.8075 48.3144 63.3993 48.9051C63.9911 49.4958 64.4598 50.1982 64.778 50.9714C65.0962 51.7447 65.2578 52.5735 65.2532 53.4096ZM62.7232 53.3907C62.7232 52.6407 62.5012 51.9075 62.0854 51.2833C61.6695 50.6592 61.0783 50.172 60.3862 49.8832C59.6941 49.5943 58.932 49.5167 58.1958 49.66C57.4596 49.8033 56.7823 50.1613 56.2491 50.6887C55.716 51.2161 55.3507 51.8895 55.1994 52.6241C55.0481 53.3587 55.1175 54.1216 55.3989 54.8168C55.6802 55.512 56.161 56.1085 56.7806 56.5311C57.4002 56.9536 58.1309 57.1835 58.8809 57.1916C59.8938 57.1951 60.8669 56.7971 61.587 56.0847C62.3072 55.3723 62.7157 54.4036 62.7232 53.3907Z" fill="#D9BB7E"/>
</svg>
