<svg width="108" height="72" viewBox="0 0 108 72" fill="none" xmlns="http://www.w3.org/2000/svg">
<mask id="mask0_69_504" style="mask-type:luminance" maskUnits="userSpaceOnUse" x="0" y="0" width="108" height="72">
<path d="M107.705 0.488281H0.0625V71.2944H107.705V0.488281Z" fill="white"/>
</mask>
<g mask="url(#mask0_69_504)">
<path d="M107.705 31.469C107.476 31.8502 107.238 32.2266 107.02 32.6136C106.02 34.3934 104.838 34.9341 102.83 34.5216C102.625 34.4797 102.419 34.4394 102.215 34.4025C100.561 34.091 100.144 34.4337 100.366 36.0459C100.773 39.282 100.369 42.5687 99.1896 45.6096C98.1686 48.4523 96.5476 51.0418 94.4368 53.2022C94.1516 53.4766 93.9297 53.8099 93.7865 54.1789C93.6433 54.5479 93.5823 54.9436 93.6077 55.3386C93.6513 59.0856 93.6349 62.8342 93.6201 66.582C93.6464 67.1966 93.5456 67.81 93.324 68.384C93.1024 68.9579 92.7649 69.4799 92.3324 69.9174C91.8999 70.3549 91.3817 70.6985 90.8104 70.9267C90.2391 71.1548 89.6269 71.2627 89.012 71.2435C83.2683 71.278 77.5237 71.2624 71.7792 71.2435C71.0351 71.2983 70.2992 71.0592 69.7295 70.5774C69.1598 70.0955 68.8018 69.4095 68.7323 68.6666C68.671 68.2863 68.6435 67.9014 68.6502 67.5162C68.6452 65.3502 68.6502 65.3798 66.4316 65.3486C64.7709 65.3272 63.079 65.5885 61.4964 64.7611C60.4089 64.2605 59.489 63.4564 58.8476 62.4454C58.2062 61.4345 57.8705 60.2598 57.8809 59.0626C57.8505 57.8021 57.8259 56.5383 57.8949 55.2827C57.9376 54.5111 57.7371 54.2211 56.9319 54.2876C56.3925 54.3656 55.8428 54.3285 55.3188 54.1788C54.7948 54.0291 54.3084 53.7702 53.8916 53.4191C53.667 53.2626 53.4764 53.0624 53.3311 52.8305C53.1858 52.5985 53.0888 52.3396 53.046 52.0693C53.0032 51.799 53.0154 51.5228 53.0819 51.2573C53.1484 50.9918 53.2679 50.7425 53.4331 50.5242C54.6426 48.599 55.8858 46.6943 57.1357 44.7945C57.3484 44.5036 57.4944 44.1693 57.5634 43.8156C57.6325 43.4618 57.6228 43.0972 57.535 42.7477C55.0411 31.2216 63.1341 19.362 74.7825 17.3718C77.0149 16.9291 79.3051 16.8574 81.5608 17.1598C81.8827 17.2253 82.2146 17.224 82.536 17.156C82.8574 17.088 83.1615 16.9548 83.4293 16.7646C84.5715 15.975 85.8624 16.3307 87.0744 16.6512C87.5747 16.7681 88.1008 16.6887 88.5444 16.4294C89.1576 16.172 89.7015 15.7737 90.1318 15.2667C90.5621 14.7597 90.8668 14.1584 91.021 13.5115C91.6085 11.5599 92.6266 11.0636 94.9052 11.1006C95.67 11.0534 96.4252 11.291 97.0253 11.7676C97.6254 12.2441 98.0278 12.9259 98.155 13.6816C98.2683 14.2514 98.5157 14.786 98.8766 15.2413C99.2376 15.6965 99.7017 16.0593 100.231 16.2995C100.854 16.6719 101.599 16.7849 102.305 16.6142C102.975 16.4042 103.679 16.3226 104.379 16.3735C105.006 16.4537 105.599 16.7071 106.091 17.1054C106.582 17.5036 106.953 18.031 107.162 18.6282C107.303 18.9224 107.371 19.2971 107.703 19.4828V20.9545C107.203 21.9456 106.546 22.8498 105.758 23.6324C105.296 24.0786 105.176 26.7401 105.622 27.1871C106.428 28.035 107.127 28.9785 107.704 29.9965L107.705 31.469ZM97.9266 38.1363C96.9085 40.0574 95.1624 40.004 93.4746 39.8117C91.9561 39.6392 91.3152 38.4148 90.8698 37.1001C90.7466 36.7361 90.6233 36.3712 90.4984 36.0089C90.4417 35.8495 90.4089 35.598 90.2963 35.5537C89.0161 35.0064 88.0029 33.8347 86.2749 34.4575C85.6298 34.7651 84.8938 34.8235 84.2082 34.6215C83.5227 34.4195 82.936 33.9713 82.5608 33.363C81.0817 31.0819 80.9601 30.1345 82.4301 28.4624C82.9043 27.9933 83.2673 27.424 83.4926 26.7962C83.7178 26.1684 83.7995 25.4981 83.7317 24.8345C83.7416 24.5808 83.7008 24.3276 83.6118 24.0897C83.5228 23.8518 83.3873 23.6341 83.2132 23.4492C82.2937 22.7248 81.6782 21.6829 81.4876 20.528C81.4252 19.6701 81.0053 19.5641 80.3882 19.5214C78.5705 19.4062 76.7456 19.5275 74.9592 19.8821C70.0825 20.833 65.7764 23.6661 62.9729 27.7681C60.1694 31.8702 59.0941 36.9112 59.9796 41.8002C60.2021 42.6085 60.2309 43.4578 60.0638 44.2793C59.8966 45.1008 59.5381 45.8713 59.0174 46.5283C57.9689 47.8751 57.1702 49.4133 56.2014 50.8266C55.7412 51.498 55.7708 51.8045 56.6393 51.8086C57.3403 51.8086 58.0412 51.7962 58.7413 51.8086C59.9533 51.8308 60.3715 52.2424 60.3847 53.4627C60.4003 55.1792 60.3847 56.8965 60.3921 58.6131C60.3986 61.3855 61.8876 62.8679 64.6805 62.8736C66.2919 62.8736 67.9041 62.8449 69.5154 62.8613C70.748 62.8736 71.1416 63.2721 71.1753 64.5047C71.204 65.5203 71.227 66.5384 71.1818 67.5516C71.1432 68.4365 71.4374 68.7718 72.3774 68.7644C77.8072 68.7225 83.2387 68.7488 88.6685 68.734C90.376 68.7291 91.1024 67.9945 91.1065 66.3075C91.1163 62.3132 91.1295 58.3189 91.1065 54.3254C91.0817 53.9277 91.1462 53.5294 91.2952 53.1597C91.4442 52.7901 91.6739 52.4584 91.9676 52.189C93.5365 50.6829 94.8485 48.9304 95.8518 47.0008C97.3127 44.2805 98.0285 41.2223 97.9266 38.1363ZM86.2691 27.0268C86.4655 27.6177 86.1261 28.1682 85.5485 28.6703C85.0863 29.0979 84.6513 29.554 84.2461 30.0359C84.0942 30.2008 84.002 30.4119 83.9843 30.6353C83.9666 30.8588 84.0243 31.0817 84.1483 31.2685C84.2126 31.4596 84.3188 31.634 84.4593 31.7787C84.5997 31.9234 84.7708 32.0348 84.96 32.1047C85.1491 32.1746 85.3516 32.2012 85.5524 32.1827C85.7532 32.1641 85.9473 32.1008 86.1204 31.9973C86.7891 31.7587 87.5048 31.6819 88.209 31.7732C88.9131 31.8644 89.5856 32.1212 90.1714 32.5224C91.938 33.4821 93.0079 34.5857 93.2996 36.5282C93.3066 36.66 93.3419 36.7887 93.403 36.9056C93.4641 37.0226 93.5497 37.125 93.6539 37.206C93.7581 37.287 93.8785 37.3446 94.0069 37.375C94.1353 37.4053 94.2688 37.4077 94.3982 37.3819C95.0104 37.3417 95.6505 37.4132 95.7631 36.6079C96.0564 34.5175 97.3054 33.3729 99.1542 32.4246C100.323 31.8256 101.255 31.3268 102.503 31.8889C102.665 31.9539 102.833 31.9999 103.006 32.0261C103.73 32.1625 104.363 32.3038 104.868 31.4238C104.975 31.275 105.049 31.1051 105.085 30.9254C105.12 30.7457 105.117 30.5605 105.075 30.3821C105.033 30.2038 104.953 30.0366 104.841 29.8917C104.729 29.7468 104.587 29.6276 104.425 29.5421C103.093 28.5347 102.814 27.2923 102.821 25.6406C102.83 23.8395 103.1 22.4245 104.547 21.2347C105.425 20.5108 105.333 19.9084 104.541 19.1073C104.034 18.5937 103.427 18.8 102.88 19.007C101.49 19.5313 100.404 19.2585 99.0178 18.5337C98.1693 18.1698 97.4263 17.5978 96.8574 16.8706C96.2885 16.1435 95.9121 15.2846 95.7631 14.3735C95.662 13.8122 95.27 13.6471 94.699 13.5887C93.3579 13.4523 93.1936 14.4573 93.0482 15.3086C92.814 16.6759 92.0621 17.3497 90.8723 18.0662C89.1254 19.1196 87.5477 19.786 85.5707 18.883C85.4587 18.8301 85.3367 18.8018 85.2128 18.8001C85.089 18.7983 84.9663 18.8231 84.8528 18.8728C84.7394 18.9224 84.6379 18.9958 84.5552 19.088C84.4725 19.1802 84.4105 19.289 84.3734 19.4072C84.1351 19.943 83.6183 20.5231 84.2913 20.9914C86.2067 22.33 86.4803 24.2117 86.2354 26.3128C86.233 26.5529 86.2475 26.7929 86.279 27.031" fill="white"/>
<path d="M20.1312 71.2545C17.4697 71.2545 14.8008 71.1362 12.1475 71.2849C11.4418 71.3377 10.7331 71.2364 10.0705 70.988C9.40785 70.7395 8.8072 70.3499 8.31019 69.8462C7.81317 69.3424 7.43167 68.7366 7.19215 68.0707C6.95264 67.4048 6.86083 66.6948 6.92311 65.9899C7.08745 62.4253 6.94201 58.8468 6.98227 55.2749C6.99803 54.8992 6.9352 54.5243 6.79782 54.1743C6.66043 53.8242 6.4515 53.5067 6.1844 53.242C2.29031 49.2292 0.0970759 43.8671 0.0627161 38.2755C0.015879 28.148 7.58951 19.2556 17.6628 17.3509C22.3159 16.4693 27.1296 17.1256 31.377 19.2207C35.6243 21.3159 39.0746 24.736 41.207 28.9648C43.4005 33.304 44.0261 38.2682 42.9778 43.0159C42.9222 43.287 42.9259 43.5669 42.9887 43.8364C43.0516 44.1059 43.172 44.3586 43.3418 44.5771C44.7561 46.5342 46.0423 48.5806 47.1923 50.7038C47.3825 50.9896 47.5002 51.3176 47.5351 51.6592C47.5699 52.0008 47.5209 52.3458 47.3923 52.6642C47.2636 52.9826 47.0592 53.2648 46.7969 53.4863C46.5345 53.7079 46.222 53.862 45.8866 53.9355C45.1184 54.187 44.3112 54.2983 43.5037 54.2642C42.8036 54.2469 42.7 54.5222 42.7173 55.1204C42.7543 56.4154 42.7296 57.7121 42.728 59.0079C42.7474 60.6522 42.1206 62.2385 40.9823 63.4253C39.844 64.6122 38.2853 65.3047 36.6416 65.3539C35.3474 65.4015 34.05 65.4024 32.755 65.3695C32.1066 65.3531 31.8872 65.5914 31.9185 66.2232C31.9581 66.9226 31.9487 67.6238 31.8905 68.3219C31.8984 68.7274 31.8205 69.1301 31.6622 69.5035C31.5038 69.8769 31.2684 70.2127 30.9713 70.4889C30.6743 70.7652 30.3224 70.9756 29.9385 71.1066C29.5545 71.2375 29.1473 71.286 28.7434 71.2488C25.8716 71.2751 22.9997 71.2562 20.1279 71.2562L20.1312 71.2545ZM44.8397 51.5608C43.3935 49.3019 42.0213 47.1524 40.6425 45.0077C40.4711 44.7699 40.3557 44.4964 40.3047 44.2077C40.2538 43.9191 40.2687 43.6226 40.3483 43.3405C41.2528 39.8738 41.1545 36.2217 40.0648 32.8087C38.5397 28.0395 35.2123 24.0545 30.7917 21.703C26.3712 19.3515 21.207 18.8195 16.3998 20.2202C12.4279 21.3344 8.92862 23.7153 6.43413 27.0008C3.93963 30.2863 2.58645 34.2966 2.58041 38.4218C2.59287 40.8945 3.09576 43.3402 4.05996 45.6173C5.02416 47.8944 6.4305 49.9575 8.19757 51.6873C8.63029 52.0864 8.97177 52.5741 9.19867 53.1173C9.42557 53.6604 9.53255 54.2462 9.51229 54.8344C9.44573 58.7219 9.486 62.6119 9.50654 66.5026C9.46604 66.7924 9.49129 67.0875 9.5804 67.3661C9.66951 67.6448 9.82021 67.8998 10.0213 68.1123C10.2224 68.3247 10.4688 68.4892 10.7421 68.5935C11.0154 68.6978 11.3087 68.7392 11.6002 68.7146C17.2412 68.7401 22.8814 68.7229 28.5224 68.7409C29.1617 68.7409 29.4041 68.4944 29.395 67.8798C29.3802 66.8995 29.395 65.9176 29.3991 64.9373C29.4106 63.1591 29.7163 62.8543 31.4632 62.8534C33.1067 62.8534 34.7575 62.8764 36.4033 62.8362C36.9122 62.845 37.4176 62.75 37.8886 62.557C38.3595 62.364 38.7862 62.077 39.1426 61.7136C39.4989 61.3502 39.7775 60.9179 39.9612 60.4433C40.1449 59.9686 40.2299 59.4615 40.2111 58.9528C40.2242 57.1311 40.2111 55.3094 40.2185 53.4877C40.2234 52.1886 40.5965 51.8344 41.9211 51.8081C42.9014 51.9039 43.891 51.8203 44.8414 51.5616" fill="white"/>
<path d="M32.6568 9.58027C34.5048 9.82185 36.0792 10.0585 37.661 10.2245C39.0381 10.3683 39.7851 10.8473 39.7382 11.6723C39.6897 12.5294 39.0143 12.8917 37.5196 12.7348C34.9502 12.4661 32.3848 12.1596 29.8211 11.8383C29.6003 11.8316 29.384 11.7744 29.1887 11.6712C28.9935 11.5679 28.8245 11.4213 28.6947 11.2425C28.5649 11.0638 28.4778 10.8577 28.44 10.6401C28.4022 10.4224 28.4148 10.199 28.4768 9.98701C28.826 7.35757 29.1563 4.72812 29.4973 2.09867C29.4889 1.81799 29.5498 1.53957 29.6747 1.28803C29.7995 1.0365 29.9844 0.81962 30.213 0.656584C30.4214 0.539183 30.6591 0.484313 30.8978 0.498543C31.1366 0.512774 31.3661 0.595502 31.559 0.736823C31.7519 0.878145 31.9 1.07207 31.9855 1.29538C32.0711 1.51869 32.0905 1.76193 32.0413 1.99596C31.8893 3.68291 31.6527 5.36494 31.4489 7.06915C31.9986 7.08394 32.2706 6.71746 32.5993 6.48821C38.3584 2.36642 45.3766 0.386239 52.4409 0.889915C59.5051 1.39359 66.1714 4.34948 71.2875 9.24666C71.3939 9.33756 71.4957 9.43382 71.5923 9.53508C72.1084 10.1308 72.3056 10.7956 71.6893 11.4003C71.5692 11.5306 71.4221 11.6331 71.2583 11.7006C71.0944 11.7681 70.9179 11.799 70.7409 11.7912C70.5638 11.7834 70.3907 11.737 70.2335 11.6553C70.0762 11.5736 69.9387 11.4585 69.8306 11.3182C68.5048 10.0196 67.0565 8.85232 65.506 7.83251C60.7395 4.71135 55.1282 3.13239 49.4335 3.30997C43.7389 3.48755 38.2368 5.41305 33.6741 8.82513C33.4275 9.01083 33.1753 9.19571 32.656 9.58109" fill="white"/>
<path d="M101.86 25.4968C101.863 26.4608 101.677 27.4159 101.31 28.3074C100.944 29.199 100.405 30.0094 99.7245 30.6922C99.0442 31.3751 98.2357 31.9168 97.3454 32.2864C96.4552 32.6561 95.5007 32.8463 94.5368 32.8462C93.5732 32.8447 92.6194 32.6536 91.7297 32.2835C90.8401 31.9135 90.032 31.3719 89.3516 30.6895C87.9776 29.3115 87.2073 27.4441 87.2101 25.4981C87.2129 23.5521 87.9887 21.6869 89.3667 20.3129C90.7448 18.9389 92.6122 18.1685 94.5582 18.1714C95.5217 18.1619 96.4774 18.345 97.3691 18.7101C98.2609 19.0752 99.0706 19.6148 99.7509 20.2973C100.431 20.9797 100.968 21.7912 101.33 22.6842C101.692 23.5771 101.872 24.5334 101.86 25.4968ZM99.3586 25.5018C99.3732 24.8608 99.2573 24.2236 99.0178 23.6289C98.7784 23.0342 98.4204 22.4944 97.9658 22.0424C97.5111 21.5904 96.9692 21.2357 96.3731 20.9998C95.7769 20.7639 95.139 20.6517 94.4982 20.6702C93.8665 20.6696 93.241 20.794 92.6576 21.0361C92.0742 21.2783 91.5444 21.6334 91.0988 22.0811C90.6532 22.5288 90.3005 23.0602 90.061 23.6447C89.8216 24.2292 89.7001 24.8553 89.7036 25.487C89.7122 26.7795 90.2309 28.0162 91.1469 28.9281C92.0628 29.8401 93.3018 30.3534 94.5943 30.3564C95.2262 30.3512 95.8509 30.2215 96.4326 29.9746C97.0142 29.7277 97.5415 29.3686 97.9842 28.9176C98.4269 28.4667 98.7763 27.9329 99.0124 27.3467C99.2485 26.7606 99.3667 26.1337 99.3602 25.5018" fill="white"/>
</g>
</svg>
