<svg width="79" height="78" viewBox="0 0 79 78" fill="none" xmlns="http://www.w3.org/2000/svg">
<path d="M78.3859 6.7959C78.2056 7.0167 77.9735 7.18956 77.7103 7.29913C77.4472 7.40871 77.161 7.45161 76.8772 7.42404C74.4268 7.39137 71.9828 7.42404 69.5356 7.39872C69.0292 7.393 68.8821 7.5482 68.8821 8.03748C68.9058 9.60088 68.9017 11.1659 68.8919 12.7293C68.8727 12.9111 68.9155 13.094 69.0134 13.2484C69.1113 13.4027 69.2585 13.5195 69.431 13.5796C70.0346 13.8495 70.5446 14.2924 70.8965 14.8522C71.2483 15.4119 71.4263 16.0635 71.4078 16.7244C71.4331 19.9533 71.4257 23.1831 71.4159 26.4128C71.4365 27.28 71.133 28.1237 70.5647 28.779C69.9965 29.4344 69.2044 29.8544 68.343 29.957C66.6914 30.1343 65.0234 30.1645 63.3604 30.2364C62.9562 30.2341 62.5558 30.314 62.1835 30.4712C61.8112 30.6283 61.4746 30.8595 61.1944 31.1507C60.9141 31.4419 60.6959 31.787 60.5531 32.1651C60.4103 32.5432 60.3457 32.9463 60.3635 33.3501C60.3586 35.4445 60.3847 37.538 60.352 39.6323C60.335 39.8401 60.3847 40.0478 60.4939 40.2254C60.603 40.403 60.7659 40.5412 60.9589 40.6199C63.5875 42.1114 66.1964 43.638 68.8192 45.1402C69.0467 45.2525 69.2374 45.4275 69.3687 45.6446C69.4999 45.8617 69.5664 46.1118 69.5601 46.3654C69.565 49.166 69.565 51.9664 69.5601 54.7665C69.5856 55.0352 69.5124 55.304 69.3541 55.5226C69.1958 55.7411 68.9632 55.8946 68.7 55.9542C68.4754 56.0047 68.2402 55.9752 68.035 55.8708C67.8298 55.7664 67.6675 55.5937 67.576 55.3824C67.4599 55.1017 67.4234 54.7945 67.4707 54.4945C67.4649 52.1477 67.4511 49.8018 67.4805 47.4559C67.5026 47.2487 67.4582 47.0398 67.3536 46.8596C67.2491 46.6794 67.0898 46.5372 66.8989 46.4536C64.3128 44.9891 61.7529 43.4804 59.1684 42.0109C58.8721 41.875 58.6244 41.6518 58.4585 41.3712C58.2925 41.0907 58.2162 40.7661 58.2397 40.441C58.2789 38.0444 58.252 35.6478 58.2585 33.2529C58.2626 31.9168 58.7883 30.6352 59.7237 29.6811C60.659 28.727 61.9299 28.176 63.2656 28.1453C64.6771 28.1134 66.0886 28.0538 67.4993 27.9901C68.7858 27.9321 69.3077 27.3734 69.3069 26.0934C69.3069 23.0657 69.3053 20.0383 69.302 17.0111C69.302 15.8929 68.7956 15.2909 67.857 15.2762C66.8768 15.2607 66.2838 15.888 66.2756 16.9866C66.2634 18.7779 66.194 20.5733 66.292 22.3597C66.4104 24.5537 65.159 25.168 63.5532 25.1443C58.836 25.0748 54.1172 25.1533 49.4 25.1018C48.6952 25.0771 47.9933 25.2051 47.3426 25.4769C46.6918 25.7487 46.1074 26.158 45.6295 26.6766C44.3806 27.964 43.2714 29.3722 42.1172 30.7387C41.4042 31.5915 40.4655 32.2265 39.4086 32.5709C38.2928 32.9458 37.1925 33.3664 36.0286 33.7871C36.3593 34.1833 36.6052 34.6433 36.7509 35.1384C36.8966 35.6336 36.9391 36.1534 36.8756 36.6656C38.8785 36.0391 40.7719 35.4583 42.6555 34.849C43.127 34.6605 43.5389 34.3484 43.848 33.9456C44.6845 33.0021 45.5381 32.075 46.3802 31.1332C46.7355 30.7338 47.1251 30.4128 47.6871 30.6333C47.934 30.7336 48.1399 30.9139 48.2719 31.1453C48.4039 31.3767 48.4543 31.6458 48.4149 31.9092C48.4062 40.8132 48.4043 49.7193 48.4092 58.6276C48.4092 59.4992 48.0294 60.0219 47.3874 60.0513C46.7453 60.0808 46.2953 59.5139 46.2944 58.6146C46.2944 50.8689 46.2931 43.1234 46.2904 35.3783C46.3429 35.1077 46.3182 34.8277 46.2193 34.5704C44.6191 36.6583 42.2446 37.2554 39.9134 37.9301C36.3406 38.9647 32.8149 40.1398 29.3363 41.4555C28.2423 41.8385 27.0847 42.0071 25.9269 41.9521C25.097 41.8802 24.2612 41.9206 23.4421 42.0722C22.8489 42.2168 22.319 42.5507 21.9326 43.0233C21.5461 43.496 21.3242 44.0817 21.3004 44.6917C21.2652 46.3818 21.3069 48.0726 21.2759 49.7618C21.2677 50.2086 21.5021 50.3711 21.8223 50.5557C24.3545 52.0146 26.8744 53.4963 29.4131 54.9413C29.685 55.069 29.9112 55.2771 30.0614 55.5373C30.2115 55.7975 30.2783 56.0975 30.2528 56.3969C30.2185 58.5664 30.2438 60.7358 30.2422 62.9062C30.2422 63.7712 29.9007 64.1992 29.2252 64.2033C28.5718 64.2033 28.1495 63.741 28.1429 62.9282C28.1274 61.0364 28.1184 59.1439 28.1429 57.2521C28.1646 57.0576 28.124 56.8612 28.027 56.6912C27.93 56.5212 27.7815 56.3864 27.603 56.3062C25.128 54.9013 22.68 53.4473 20.1977 52.0587C19.8545 51.9065 19.5689 51.6488 19.3822 51.3232C19.1955 50.9975 19.1175 50.6208 19.1595 50.2478C19.2256 48.5096 19.2411 46.7649 19.1693 45.0266C19.1362 44.3495 19.244 43.6728 19.4858 43.0394C19.7277 42.4061 20.0983 41.8298 20.5743 41.3469C21.0503 40.8641 21.6212 40.4853 22.2511 40.2345C22.881 39.9837 23.556 39.8662 24.2336 39.8896C27.7508 40.0791 30.7461 38.6268 33.8909 37.5707C34.2372 37.4365 34.5176 37.1728 34.6729 36.8355C34.8282 36.4982 34.8461 36.1137 34.7228 35.7634C34.5996 35.4131 34.3449 35.1245 34.0126 34.9587C33.6803 34.7929 33.2966 34.7629 32.9426 34.8751C31.2681 35.4126 29.6034 35.9811 27.9428 36.5611C27.158 36.8323 26.3324 36.9663 25.5021 36.9572C20.5571 36.9431 15.612 36.9431 10.6669 36.9572C9.35317 36.899 8.04416 37.1508 6.8458 37.6924C6.35779 37.9071 5.94609 38.2644 5.66476 38.7173C5.38342 39.1702 5.24558 39.6976 5.26933 40.2302C5.26933 44.267 5.26116 48.3038 5.27505 52.3405C5.25868 52.8979 5.39528 53.4492 5.67003 53.9344C5.94477 54.4197 6.34717 54.8204 6.83355 55.0932C7.36531 55.4199 7.50008 55.3309 7.49845 54.7077C7.48375 50.5958 7.49845 46.483 7.49845 42.3736C7.49845 42.0967 7.49436 41.8173 7.51805 41.5421C7.53163 41.2839 7.64307 41.0407 7.82969 40.8618C8.01631 40.683 8.26408 40.5819 8.52255 40.5793C8.78103 40.5767 9.03078 40.6727 9.22096 40.8478C9.41115 41.0229 9.52746 41.2638 9.54623 41.5216C9.56489 41.6969 9.57171 41.8732 9.56665 42.0493C9.57537 50.1228 9.58299 58.1963 9.58952 66.2699C9.58952 67.4134 9.23175 67.9607 8.50314 67.9362C7.81211 67.9133 7.4911 67.3913 7.49191 66.2854C7.49191 63.6111 7.48211 60.9368 7.50498 58.2625C7.52264 58.1671 7.52124 58.0692 7.50086 57.9743C7.48048 57.8794 7.44153 57.7896 7.38626 57.7098C7.33098 57.6301 7.26046 57.5621 7.17878 57.5098C7.0971 57.4574 7.00586 57.4217 6.91033 57.4048C5.79825 57.0863 4.82494 56.4044 4.1458 55.4679C3.46666 54.5314 3.12084 53.3944 3.16355 52.2384C3.15538 48.4541 3.24523 44.6672 3.13823 40.8845C3.03041 37.2088 5.29057 35.7385 7.86275 35.1243C8.87329 34.9602 9.8925 34.8549 10.9152 34.809C10.1264 33.9351 9.52951 32.9055 9.16314 31.7867C8.80779 30.8151 8.66623 29.7783 8.74814 28.747C8.83004 27.7156 9.13347 26.7141 9.63772 25.8108C10.0494 25.1126 10.6321 24.5307 11.331 24.1199C12.0298 23.7092 12.8217 23.4832 13.632 23.4632C14.4343 23.3784 15.245 23.4262 16.0318 23.6046C17.1263 23.8789 18.1012 24.5034 18.808 25.383C19.5147 26.2626 19.9147 27.349 19.9469 28.4769C20.0541 29.6037 19.9249 30.7404 19.5675 31.8143C19.21 32.8882 18.6323 33.8756 17.8713 34.7134C18.1 34.9421 18.3394 34.8465 18.5485 34.8482C20.9173 34.8637 23.291 34.8555 25.6622 34.8792C26.4906 34.8275 27.3036 34.6315 28.0645 34.3001C31.6487 33.0667 35.2264 31.8128 38.8074 30.5696C39.4992 30.3285 40.1095 29.8984 40.5693 29.3281C41.7129 27.9566 42.836 26.5598 44.0817 25.2709C44.7596 24.5013 45.604 23.8963 46.5507 23.5018C47.4974 23.1074 48.5216 22.9338 49.5454 22.9944C50.1678 23.0303 50.7943 23.0001 51.3955 23.0001C51.5156 22.6791 51.2616 22.6497 51.1595 22.537C50.1961 21.5295 49.516 20.2855 49.1878 18.9308C48.8596 17.576 48.8951 16.1587 49.2906 14.822C49.5734 13.7266 50.2147 12.7573 51.1121 12.0684C52.0096 11.3795 53.1117 11.0107 54.243 11.0205C57.3608 10.8506 59.2362 12.3797 59.8889 14.1825C60.3886 15.4673 60.5445 16.8602 60.341 18.2237C60.1376 19.5872 59.582 20.874 58.729 21.957C58.5256 22.2339 58.2928 22.4888 57.9702 22.88C59.6365 22.88 61.1615 22.88 62.6865 22.88C64.1568 22.88 64.1568 22.8841 64.1633 21.4097C64.1699 19.9354 64.1699 18.4831 64.1723 17.0193C64.1211 16.2702 64.3089 15.5243 64.7088 14.8888C65.1086 14.2533 65.6999 13.7612 66.3974 13.4833C66.8327 13.2946 66.845 13.025 66.8442 12.6566C66.8382 9.07403 66.8365 5.49143 66.8393 1.90883C66.8393 0.330718 67.0026 0.158367 68.5497 0.158367C71.349 0.159184 74.1499 0.174704 76.9499 0.142848C77.2368 0.108771 77.5272 0.161936 77.7834 0.295407C78.0395 0.428877 78.2495 0.636456 78.3859 0.891061V1.49633C78.0355 2.14979 77.6916 2.81142 77.3314 3.46161C77.2703 3.55307 77.2369 3.66019 77.2352 3.77015C77.2334 3.88012 77.2634 3.98825 77.3216 4.08158C77.6859 4.72851 78.0322 5.38851 78.3835 6.03788L78.3859 6.7959ZM51.1137 17.0463C51.0859 18.1493 51.3726 19.2375 51.9403 20.1837C53.3551 22.5843 56.1062 22.5476 57.4858 20.1257C58.1958 18.8376 58.4546 17.3491 58.2209 15.897C58.1873 15.2857 57.9566 14.7018 57.5635 14.2326C57.1704 13.7633 56.6359 13.434 56.04 13.2938C53.333 12.6338 51.0116 13.6826 51.1137 17.0463ZM17.8313 29.248C17.8313 28.9956 17.846 28.7432 17.8313 28.4924C17.8114 27.7682 17.5328 27.0751 17.0459 26.5385C16.5591 26.002 15.8963 25.6575 15.1774 25.5674C13.0733 25.2929 11.6005 25.9823 11.1211 27.5956C10.819 28.5091 10.7559 29.4847 10.9376 30.4295C11.1193 31.3743 11.5399 32.2569 12.1593 32.9932C12.4211 33.3611 12.7699 33.6587 13.1745 33.8594C13.5791 34.0601 14.0271 34.1578 14.4785 34.1436C14.93 34.1295 15.3709 34.004 15.7622 33.7784C16.1535 33.5527 16.4829 33.2339 16.7212 32.8502C17.5002 31.8157 17.8937 30.5417 17.8338 29.248M72.2025 5.30601C73.1599 5.30601 74.118 5.29621 75.0753 5.31091C75.4837 5.31663 75.5989 5.19655 75.3555 4.84205C75.1145 4.5485 74.9815 4.18122 74.9785 3.80144C74.9755 3.42167 75.1028 3.05235 75.3391 2.75506C75.674 2.28783 75.3759 2.24209 74.9781 2.24536C73.7431 2.25516 72.508 2.22412 71.2738 2.25434C70.5068 2.27395 69.4833 1.89984 69.0406 2.41771C68.5824 2.95681 68.9589 3.96968 68.9001 4.76527C68.8642 5.22596 69.0823 5.31663 69.4801 5.30927C70.3867 5.29212 71.2942 5.30356 72.2017 5.30356" fill="#D9BB7E"/>
<path d="M1.48215 77.6443C1.25597 77.4489 1.08069 77.2015 0.971405 76.9233C0.862121 76.6451 0.822113 76.3445 0.854827 76.0474C0.900569 75.0158 0.863812 73.9808 0.868713 72.9435C0.872797 71.9723 1.26161 71.5867 2.24752 71.5867C7.79458 71.5867 13.3417 71.5736 18.8887 71.6055C19.592 71.6055 19.8215 71.4307 19.7399 70.7315C19.6972 70.155 19.6917 69.5763 19.7235 68.999C19.7374 67.9698 20.0592 67.6521 21.0909 67.6512C26.638 67.6512 32.185 67.6349 37.7321 67.6676C38.4509 67.6717 38.6665 67.4568 38.5808 66.783C38.556 66.4295 38.5538 66.0748 38.5742 65.7211C38.5742 64.4207 38.8487 64.152 40.1768 64.1512C42.5467 64.1512 44.9155 64.1512 47.2832 64.1512C50.41 64.1512 53.5369 64.1307 56.6628 64.1618C57.3032 64.1683 57.4985 63.9731 57.4576 63.3507C57.4086 62.5976 57.4282 61.8379 57.4527 61.0823C57.4789 60.2843 57.8383 59.9388 58.629 59.9388C64.8066 59.9347 70.9843 59.9437 77.1611 59.9241C77.6334 59.9585 78.0727 60.1792 78.3823 60.5375C78.3823 66.0103 78.3725 71.4879 78.397 76.9631C78.397 77.5349 78.2712 77.7407 77.6994 77.6517C77.4228 77.6279 77.1448 77.6255 76.8679 77.6443C76.646 77.4116 76.4765 77.1341 76.3707 76.8305C76.2649 76.5269 76.2253 76.2042 76.2544 75.884C76.2814 71.5214 76.2544 67.1579 76.2863 62.7944C76.292 62.1262 76.0731 62.0266 75.4776 62.0299C70.4335 62.0522 65.3893 62.0503 60.3451 62.0241C59.6827 62.0241 59.507 62.1704 59.5128 62.8475C59.5503 67.2355 59.5356 71.6235 59.5422 76.0123C59.5422 76.6576 59.5095 77.28 58.8528 77.646H58.0956C57.8626 77.4779 57.6786 77.2509 57.5625 76.9882C57.4463 76.7254 57.4022 76.4365 57.4347 76.1511C57.4593 73.1248 57.4282 70.0976 57.4666 67.0713C57.4748 66.3974 57.2738 66.2218 56.6171 66.2251C51.5223 66.2479 46.4275 66.2463 41.3327 66.2202C40.7837 66.2202 40.6678 66.3705 40.6727 66.8916C40.6972 69.9139 40.6661 72.9451 40.6996 75.9714C40.7309 76.2793 40.6914 76.5903 40.5842 76.8806C40.4771 77.171 40.3051 77.433 40.0813 77.6467H39.1771C38.9552 77.4291 38.785 77.1644 38.6791 76.8721C38.5732 76.5799 38.5343 76.2677 38.5653 75.9584C38.6028 74.145 38.553 72.3292 38.5873 70.515C38.5979 69.9433 38.4778 69.7399 37.8522 69.7431C32.7366 69.7687 27.6209 69.7687 22.5048 69.7431C21.9012 69.7431 21.7991 69.9653 21.8064 70.4905C21.8334 72.3807 21.8064 74.2708 21.8334 76.1609C21.8664 76.4468 21.8213 76.7363 21.7027 76.9986C21.5842 77.2608 21.3967 77.4859 21.1603 77.65H20.4031C20.1712 77.4989 19.9855 77.2867 19.8664 77.0368C19.7474 76.7869 19.6996 76.509 19.7284 76.2337C19.7554 75.63 19.6908 75.0207 19.7456 74.4211C19.8044 73.7873 19.5275 73.686 18.9696 73.6917C14.2581 73.7129 9.54668 73.7056 4.83849 73.708C2.99001 73.708 2.98266 73.708 2.99083 75.5908C2.99083 76.3415 3.07905 77.1052 2.39209 77.65L1.48215 77.6443Z" fill="#D9BB7E"/>
<path d="M52.4431 51.3932C52.4431 48.9982 52.4382 46.6041 52.4431 44.2092C52.4431 42.7209 53.1129 42.3305 54.3945 43.0518C57.2044 44.6258 60.0085 46.2096 62.8307 47.7608C63.1163 47.8892 63.3546 48.1036 63.5123 48.3741C63.67 48.6446 63.7393 48.9576 63.7104 49.2694C63.6728 51.0836 63.7022 52.8986 63.6982 54.7136C63.6982 55.4814 63.3159 55.9543 62.7041 55.978C62.0792 56.0025 61.6103 55.4879 61.6022 54.707C61.5858 53.1445 61.5899 51.5819 61.6022 50.0185C61.6252 49.8603 61.5967 49.6989 61.5207 49.5582C61.4448 49.4176 61.3256 49.3051 61.1807 49.2376C59.1484 48.1294 57.1268 47.0014 55.1157 45.8535C54.6747 45.6027 54.544 45.6174 54.544 46.1802C54.5579 50.2382 54.544 54.2962 54.5383 58.3509C54.5383 59.4773 54.1829 60.0573 53.4846 60.0548C52.8017 60.0548 52.4447 59.4659 52.4447 58.3476C52.4447 56.0284 52.4447 53.7094 52.4447 51.3907L52.4431 51.3932Z" fill="#D9BB7E"/>
<path d="M13.4563 60.3118C13.4563 58.2444 13.4514 56.177 13.4563 54.1096C13.4604 52.721 14.1849 52.2832 15.3954 52.9538C18.1914 54.5058 20.9743 56.0757 23.7728 57.6195C24.0141 57.7291 24.2177 57.9075 24.3581 58.1323C24.4984 58.357 24.5693 58.6183 24.5619 58.8832C24.5619 60.2718 24.5782 61.6604 24.5561 63.0425C24.5752 63.1938 24.5603 63.3475 24.5128 63.4925C24.4652 63.6374 24.386 63.77 24.281 63.8806C24.176 63.9913 24.0477 64.0772 23.9055 64.1323C23.7632 64.1874 23.6105 64.2102 23.4583 64.1991C22.8441 64.1795 22.4781 63.7768 22.4642 63.022C22.4414 61.9888 22.4365 60.9546 22.4561 59.9181C22.4777 59.7213 22.4351 59.5228 22.3345 59.3523C22.2339 59.1818 22.0808 59.0485 21.8982 58.9722C19.9721 57.9327 18.0613 56.8648 16.1657 55.7686C15.6601 55.4778 15.549 55.5562 15.5514 56.128C15.5686 59.6077 15.5596 63.0866 15.558 66.5662C15.558 67.3888 15.1888 67.8936 14.5778 67.9254C13.9349 67.9589 13.4653 67.4174 13.462 66.5858C13.4522 64.4931 13.462 62.4004 13.462 60.3077" fill="#D9BB7E"/>
</svg>
